<?xml version="1.0" encoding="utf-8" standalone="no"?>
<!DOCTYPE svg PUBLIC "-//W3C//DTD SVG 1.1//EN"
  "http://www.w3.org/Graphics/SVG/1.1/DTD/svg11.dtd">
<svg xmlns:xlink="http://www.w3.org/1999/xlink" width="457.862812pt" height="269.592812pt" viewBox="0 0 457.862812 269.592812" xmlns="http://www.w3.org/2000/svg" version="1.1">
 <metadata>
  <rdf:RDF xmlns:dc="http://purl.org/dc/elements/1.1/" xmlns:cc="http://creativecommons.org/ns#" xmlns:rdf="http://www.w3.org/1999/02/22-rdf-syntax-ns#">
   <cc:Work>
    <dc:type rdf:resource="http://purl.org/dc/dcmitype/StillImage"/>
    <dc:date>2026-06-29T10:53:15.196975</dc:date>
    <dc:format>image/svg+xml</dc:format>
    <dc:creator>
     <cc:Agent>
      <dc:title>Matplotlib v3.10.9, https://matplotlib.org/</dc:title>
     </cc:Agent>
    </dc:creator>
   </cc:Work>
  </rdf:RDF>
 </metadata>
 <defs>
  <style type="text/css">*{stroke-linejoin: round; stroke-linecap: butt}</style>
 </defs>
 <g id="figure_1">
  <g id="patch_1">
   <path d="M 0 269.592812 
L 457.862812 269.592812 
L 457.862812 0 
L 0 0 
z
" style="fill: #ffffff"/>
  </g>
  <g id="axes_1">
   <g id="patch_2">
    <path d="M 44.722813 234.94 
L 450.662813 234.94 
L 450.662813 7.2 
L 44.722813 7.2 
z
" style="fill: #ffffff"/>
   </g>
   <g id="FillBetweenPolyCollection_1">
    <defs>
     <path id="maa08e0de46" d="M 63.174631 -252.040994 
L 63.174631 -246.968153 
L 64.408866 -246.826943 
L 65.643101 -246.685511 
L 66.877337 -246.543861 
L 68.111572 -246.401995 
L 69.345807 -246.259916 
L 70.580043 -246.117627 
L 71.814278 -245.975129 
L 73.048513 -245.832426 
L 74.282749 -245.68952 
L 75.516984 -245.546414 
L 76.751219 -245.403111 
L 77.985455 -245.259613 
L 79.21969 -245.115922 
L 80.453925 -244.972042 
L 81.688161 -244.827976 
L 82.922396 -244.683724 
L 84.156631 -244.539292 
L 85.390867 -244.394679 
L 86.625102 -244.249891 
L 87.859337 -244.104928 
L 89.093573 -243.959794 
L 90.327808 -243.814491 
L 91.562043 -243.669021 
L 92.796279 -243.523388 
L 94.030514 -243.377593 
L 95.264749 -243.231639 
L 96.498985 -243.085528 
L 97.73322 -242.939263 
L 98.967455 -242.792846 
L 100.201691 -242.646279 
L 101.435926 -242.499566 
L 102.670161 -242.352707 
L 103.904397 -242.205705 
L 105.138632 -242.058564 
L 106.372867 -241.911283 
L 107.607103 -241.763867 
L 108.841338 -241.616317 
L 110.075573 -241.468635 
L 111.309809 -241.320824 
L 112.544044 -241.166482 
L 113.778279 -240.989914 
L 115.012515 -240.813127 
L 116.24675 -240.648794 
L 117.480985 -240.485047 
L 118.715221 -240.322053 
L 119.949456 -240.158875 
L 121.183691 -239.995513 
L 122.417927 -239.831967 
L 123.652162 -239.668239 
L 124.886397 -239.50433 
L 126.120633 -239.340241 
L 127.354868 -239.175971 
L 128.589103 -239.011524 
L 129.823338 -238.846899 
L 131.057574 -238.682098 
L 132.291809 -238.517121 
L 133.526044 -238.35197 
L 134.76028 -238.186646 
L 135.994515 -238.02115 
L 137.22875 -237.855483 
L 138.462986 -237.689646 
L 139.697221 -237.523641 
L 140.931456 -237.357468 
L 142.165692 -237.19113 
L 143.399927 -237.024626 
L 144.634162 -236.857959 
L 145.868398 -236.691129 
L 147.102633 -236.524138 
L 148.336868 -236.356987 
L 149.571104 -236.189678 
L 150.805339 -236.022211 
L 152.039574 -235.854588 
L 153.27381 -235.68681 
L 154.508045 -235.518879 
L 155.74228 -235.350795 
L 156.976516 -235.182561 
L 158.210751 -235.014177 
L 159.444986 -234.845645 
L 160.679222 -234.676967 
L 161.913457 -234.508142 
L 163.147692 -234.339174 
L 164.381928 -234.168146 
L 165.616163 -233.994377 
L 166.850398 -233.811132 
L 168.084634 -233.608315 
L 169.318869 -233.391422 
L 170.553104 -233.164767 
L 171.78734 -232.935523 
L 173.021575 -232.706081 
L 174.25581 -232.476442 
L 175.490046 -232.246608 
L 176.724281 -232.016582 
L 177.958516 -231.786366 
L 179.192752 -231.555961 
L 180.426987 -231.325369 
L 181.661222 -231.094593 
L 182.895458 -230.863635 
L 184.129693 -230.632496 
L 185.363928 -230.40118 
L 186.598164 -230.169687 
L 187.832399 -229.938019 
L 189.066634 -229.70618 
L 190.30087 -229.47417 
L 191.535105 -229.241993 
L 192.76934 -229.009649 
L 194.003576 -228.777141 
L 195.237811 -228.54447 
L 196.472046 -228.31164 
L 197.706282 -228.078651 
L 198.940517 -227.845506 
L 200.174752 -227.612206 
L 201.408988 -227.378754 
L 202.643223 -227.145151 
L 203.877458 -226.9114 
L 205.111694 -226.677502 
L 206.345929 -226.443459 
L 207.580164 -226.209272 
L 208.8144 -225.974945 
L 210.048635 -225.740478 
L 211.28287 -225.505873 
L 212.517106 -225.271132 
L 213.751341 -225.036258 
L 214.985576 -224.80125 
L 216.219812 -224.566169 
L 217.454047 -224.330076 
L 218.688282 -224.088155 
L 219.922518 -223.817027 
L 221.156753 -223.535581 
L 222.390988 -223.258026 
L 223.625224 -222.985943 
L 224.859459 -222.713839 
L 226.093694 -222.441566 
L 227.32793 -222.169127 
L 228.562165 -221.896525 
L 229.7964 -221.623764 
L 231.030636 -221.350846 
L 232.264871 -221.077775 
L 233.499106 -220.804554 
L 234.733342 -220.531185 
L 235.967577 -220.257671 
L 237.201812 -219.984015 
L 238.436048 -219.71022 
L 239.670283 -219.436289 
L 240.904518 -219.162223 
L 242.138754 -218.888027 
L 243.372989 -218.613701 
L 244.607224 -218.339249 
L 245.84146 -218.064673 
L 247.075695 -217.789975 
L 248.30993 -217.515158 
L 249.544165 -217.240223 
L 250.778401 -216.965174 
L 252.012636 -216.690012 
L 253.246871 -216.414739 
L 254.481107 -216.139358 
L 255.715342 -215.86387 
L 256.949577 -215.588277 
L 258.183813 -215.312582 
L 259.418048 -215.036786 
L 260.652283 -214.760891 
L 261.886519 -214.484899 
L 263.120754 -214.208812 
L 264.354989 -213.932631 
L 265.589225 -213.656358 
L 266.82346 -213.379995 
L 268.057695 -213.103543 
L 269.291931 -212.82627 
L 270.526166 -212.562067 
L 271.760401 -212.294281 
L 272.994637 -211.999005 
L 274.228872 -211.709394 
L 275.463107 -211.424891 
L 276.697343 -211.135731 
L 277.931578 -210.846329 
L 279.165813 -210.556778 
L 280.400049 -210.267078 
L 281.634284 -209.977233 
L 282.868519 -209.687242 
L 284.102755 -209.39711 
L 285.33699 -209.106836 
L 286.571225 -208.816422 
L 287.805461 -208.525871 
L 289.039696 -208.235183 
L 290.273931 -207.944361 
L 291.508167 -207.653406 
L 292.742402 -207.36232 
L 293.976637 -207.071104 
L 295.210873 -206.779759 
L 296.445108 -206.488288 
L 297.679343 -206.196691 
L 298.913579 -205.904971 
L 300.147814 -205.613129 
L 301.382049 -205.321166 
L 302.616285 -205.029083 
L 303.85052 -204.736883 
L 305.084755 -204.444566 
L 306.318991 -204.152134 
L 307.553226 -203.859589 
L 308.787461 -203.566931 
L 310.021697 -203.274162 
L 311.255932 -202.981284 
L 312.490167 -202.688298 
L 313.724403 -202.395204 
L 314.958638 -202.102005 
L 316.192873 -201.808702 
L 317.427109 -201.515295 
L 318.661344 -201.221787 
L 319.895579 -200.928178 
L 321.129815 -200.633698 
L 322.36405 -200.326542 
L 323.598285 -200.004227 
L 324.832521 -199.689743 
L 326.066756 -199.369264 
L 327.300991 -199.026879 
L 328.535227 -198.662173 
L 329.769462 -198.284946 
L 331.003697 -197.898566 
L 332.237933 -197.510933 
L 333.472168 -197.122997 
L 334.706403 -196.734765 
L 335.940639 -196.34624 
L 337.174874 -195.957429 
L 338.409109 -195.568337 
L 339.643345 -195.178968 
L 340.87758 -194.789328 
L 342.111815 -194.39942 
L 343.346051 -194.009251 
L 344.580286 -193.618825 
L 345.814521 -193.228145 
L 347.048757 -192.837218 
L 348.282992 -192.446047 
L 349.517227 -192.054636 
L 350.751463 -191.66299 
L 351.985698 -191.271113 
L 353.219933 -190.87901 
L 354.454169 -190.486683 
L 355.688404 -190.094138 
L 356.922639 -189.701377 
L 358.156875 -189.308406 
L 359.39111 -188.915226 
L 360.625345 -188.521844 
L 361.859581 -188.128261 
L 363.093816 -187.734481 
L 364.328051 -187.340508 
L 365.562287 -186.946346 
L 366.796522 -186.551997 
L 368.030757 -186.157464 
L 369.264992 -185.762752 
L 370.499228 -185.367863 
L 371.733463 -184.972801 
L 372.967698 -184.577567 
L 374.201934 -184.183147 
L 375.436169 -183.788015 
L 376.670404 -183.391414 
L 377.90464 -182.982527 
L 379.138875 -182.566524 
L 380.37311 -182.12932 
L 381.607346 -181.66484 
L 382.841581 -181.192793 
L 384.075816 -180.724817 
L 385.310052 -180.258613 
L 386.544287 -179.798074 
L 387.778522 -179.338743 
L 389.012758 -178.879233 
L 390.246993 -178.419546 
L 391.481228 -177.959686 
L 392.715464 -177.499654 
L 393.949699 -177.039452 
L 395.183934 -176.579084 
L 396.41817 -176.118552 
L 397.652405 -175.657856 
L 398.88664 -175.197001 
L 400.120876 -174.735988 
L 401.355111 -174.27482 
L 402.589346 -173.813498 
L 403.823582 -173.352024 
L 405.057817 -172.890401 
L 406.292052 -172.42863 
L 407.526288 -171.966715 
L 408.760523 -171.504656 
L 409.994758 -171.042455 
L 411.228994 -170.580115 
L 412.463229 -170.117638 
L 413.697464 -169.655025 
L 414.9317 -169.192278 
L 416.165935 -168.729399 
L 417.40017 -168.26639 
L 418.634406 -167.803252 
L 419.868641 -167.339988 
L 421.102876 -166.876599 
L 422.337112 -166.413086 
L 423.571347 -165.949451 
L 424.805582 -165.485697 
L 426.039818 -165.021824 
L 427.274053 -164.553341 
L 428.508288 -164.08075 
L 429.742524 -163.606007 
L 430.976759 -163.118364 
L 432.210994 -162.596442 
L 432.210994 -182.478833 
L 432.210994 -182.478833 
L 430.976759 -182.894957 
L 429.742524 -183.289396 
L 428.508288 -183.673295 
L 427.274053 -184.057428 
L 426.039818 -184.439088 
L 424.805582 -184.816032 
L 423.571347 -185.193094 
L 422.337112 -185.570276 
L 421.102876 -185.94758 
L 419.868641 -186.325007 
L 418.634406 -186.70256 
L 417.40017 -187.080239 
L 416.165935 -187.458046 
L 414.9317 -187.835984 
L 413.697464 -188.214053 
L 412.463229 -188.592257 
L 411.228994 -188.970596 
L 409.994758 -189.349073 
L 408.760523 -189.727689 
L 407.526288 -190.106446 
L 406.292052 -190.485347 
L 405.057817 -190.864393 
L 403.823582 -191.243587 
L 402.589346 -191.62293 
L 401.355111 -192.002424 
L 400.120876 -192.382072 
L 398.88664 -192.761876 
L 397.652405 -193.141837 
L 396.41817 -193.521959 
L 395.183934 -193.902243 
L 393.949699 -194.282691 
L 392.715464 -194.663306 
L 391.481228 -195.044091 
L 390.246993 -195.425047 
L 389.012758 -195.806177 
L 387.778522 -196.187484 
L 386.544287 -196.568969 
L 385.310052 -196.951825 
L 384.075816 -197.339481 
L 382.841581 -197.728865 
L 381.607346 -198.120528 
L 380.37311 -198.506979 
L 379.138875 -198.865072 
L 377.90464 -199.199214 
L 376.670404 -199.524442 
L 375.436169 -199.834636 
L 374.201934 -200.137299 
L 372.967698 -200.438794 
L 371.733463 -200.741701 
L 370.499228 -201.044779 
L 369.264992 -201.34803 
L 368.030757 -201.651459 
L 366.796522 -201.955067 
L 365.562287 -202.258858 
L 364.328051 -202.562836 
L 363.093816 -202.867004 
L 361.859581 -203.171365 
L 360.625345 -203.475922 
L 359.39111 -203.78068 
L 358.156875 -204.085642 
L 356.922639 -204.39081 
L 355.688404 -204.696191 
L 354.454169 -205.001786 
L 353.219933 -205.307599 
L 351.985698 -205.613636 
L 350.751463 -205.9199 
L 349.517227 -206.226395 
L 348.282992 -206.533124 
L 347.048757 -206.840094 
L 345.814521 -207.147307 
L 344.580286 -207.454768 
L 343.346051 -207.762482 
L 342.111815 -208.070453 
L 340.87758 -208.378687 
L 339.643345 -208.687187 
L 338.409109 -208.995958 
L 337.174874 -209.305006 
L 335.940639 -209.614336 
L 334.706403 -209.923952 
L 333.472168 -210.23386 
L 332.237933 -210.544065 
L 331.003697 -210.854572 
L 329.769462 -211.164541 
L 328.535227 -211.467316 
L 327.300991 -211.761327 
L 326.066756 -212.041946 
L 324.832521 -212.310437 
L 323.598285 -212.567139 
L 322.36405 -212.829069 
L 321.129815 -213.085202 
L 319.895579 -213.329617 
L 318.661344 -213.572924 
L 317.427109 -213.816331 
L 316.192873 -214.059839 
L 314.958638 -214.303451 
L 313.724403 -214.547168 
L 312.490167 -214.79099 
L 311.255932 -215.034918 
L 310.021697 -215.278956 
L 308.787461 -215.523102 
L 307.553226 -215.76736 
L 306.318991 -216.01173 
L 305.084755 -216.256213 
L 303.85052 -216.500812 
L 302.616285 -216.745527 
L 301.382049 -216.99036 
L 300.147814 -217.235312 
L 298.913579 -217.480385 
L 297.679343 -217.72558 
L 296.445108 -217.970899 
L 295.210873 -218.216344 
L 293.976637 -218.461914 
L 292.742402 -218.707614 
L 291.508167 -218.953443 
L 290.273931 -219.199403 
L 289.039696 -219.445496 
L 287.805461 -219.691724 
L 286.571225 -219.938088 
L 285.33699 -220.18459 
L 284.102755 -220.431232 
L 282.868519 -220.678014 
L 281.634284 -220.924939 
L 280.400049 -221.172009 
L 279.165813 -221.419225 
L 277.931578 -221.666589 
L 276.697343 -221.914103 
L 275.463107 -222.161723 
L 274.228872 -222.405671 
L 272.994637 -222.654107 
L 271.760401 -222.903997 
L 270.526166 -223.122702 
L 269.291931 -223.332295 
L 268.057695 -223.546987 
L 266.82346 -223.760389 
L 265.589225 -223.973879 
L 264.354989 -224.18746 
L 263.120754 -224.401132 
L 261.886519 -224.614898 
L 260.652283 -224.82876 
L 259.418048 -225.042718 
L 258.183813 -225.256776 
L 256.949577 -225.470934 
L 255.715342 -225.685195 
L 254.481107 -225.89956 
L 253.246871 -226.114032 
L 252.012636 -226.328613 
L 250.778401 -226.543304 
L 249.544165 -226.758108 
L 248.30993 -226.973027 
L 247.075695 -227.188064 
L 245.84146 -227.403219 
L 244.607224 -227.618497 
L 243.372989 -227.833898 
L 242.138754 -228.049426 
L 240.904518 -228.265082 
L 239.670283 -228.48087 
L 238.436048 -228.696792 
L 237.201812 -228.912851 
L 235.967577 -229.129049 
L 234.733342 -229.345388 
L 233.499106 -229.561873 
L 232.264871 -229.778505 
L 231.030636 -229.995287 
L 229.7964 -230.212223 
L 228.562165 -230.429315 
L 227.32793 -230.646567 
L 226.093694 -230.863981 
L 224.859459 -231.081562 
L 223.625224 -231.299311 
L 222.390988 -231.517348 
L 221.156753 -231.740025 
L 219.922518 -231.967714 
L 218.688282 -232.184744 
L 217.454047 -232.384022 
L 216.219812 -232.580967 
L 214.985576 -232.780837 
L 213.751341 -232.980925 
L 212.517106 -233.181146 
L 211.28287 -233.381501 
L 210.048635 -233.581992 
L 208.8144 -233.782621 
L 207.580164 -233.983389 
L 206.345929 -234.184298 
L 205.111694 -234.385351 
L 203.877458 -234.586548 
L 202.643223 -234.787893 
L 201.408988 -234.989386 
L 200.174752 -235.191029 
L 198.940517 -235.392825 
L 197.706282 -235.594776 
L 196.472046 -235.796883 
L 195.237811 -235.999148 
L 194.003576 -236.201573 
L 192.76934 -236.404161 
L 191.535105 -236.606913 
L 190.30087 -236.809831 
L 189.066634 -237.012917 
L 187.832399 -237.216173 
L 186.598164 -237.419602 
L 185.363928 -237.623204 
L 184.129693 -237.826983 
L 182.895458 -238.03094 
L 181.661222 -238.235078 
L 180.426987 -238.439398 
L 179.192752 -238.643902 
L 177.958516 -238.848592 
L 176.724281 -239.053471 
L 175.490046 -239.258541 
L 174.25581 -239.463803 
L 173.021575 -239.66926 
L 171.78734 -239.874913 
L 170.553104 -240.080765 
L 169.318869 -240.284706 
L 168.084634 -240.480533 
L 166.850398 -240.664578 
L 165.616163 -240.832172 
L 164.381928 -240.987439 
L 163.147692 -241.138714 
L 161.913457 -241.286545 
L 160.679222 -241.43452 
L 159.444986 -241.58264 
L 158.210751 -241.730907 
L 156.976516 -241.879322 
L 155.74228 -242.027887 
L 154.508045 -242.176602 
L 153.27381 -242.32547 
L 152.039574 -242.474491 
L 150.805339 -242.623667 
L 149.571104 -242.773 
L 148.336868 -242.922489 
L 147.102633 -243.072137 
L 145.868398 -243.221945 
L 144.634162 -243.371914 
L 143.399927 -243.522046 
L 142.165692 -243.672341 
L 140.931456 -243.822802 
L 139.697221 -243.973428 
L 138.462986 -244.124222 
L 137.22875 -244.275184 
L 135.994515 -244.426316 
L 134.76028 -244.577619 
L 133.526044 -244.729094 
L 132.291809 -244.880742 
L 131.057574 -245.032564 
L 129.823338 -245.184562 
L 128.589103 -245.336736 
L 127.354868 -245.489088 
L 126.120633 -245.641617 
L 124.886397 -245.794327 
L 123.652162 -245.947217 
L 122.417927 -246.100288 
L 121.183691 -246.253541 
L 119.949456 -246.406978 
L 118.715221 -246.560599 
L 117.480985 -246.714404 
L 116.24675 -246.869171 
L 115.012515 -247.023068 
L 113.778279 -247.177932 
L 112.544044 -247.319087 
L 111.309809 -247.437312 
L 110.075573 -247.552347 
L 108.841338 -247.667511 
L 107.607103 -247.782808 
L 106.372867 -247.898238 
L 105.138632 -248.013804 
L 103.904397 -248.129509 
L 102.670161 -248.245354 
L 101.435926 -248.361342 
L 100.201691 -248.477474 
L 98.967455 -248.593754 
L 97.73322 -248.710184 
L 96.498985 -248.826765 
L 95.264749 -248.943501 
L 94.030514 -249.060393 
L 92.796279 -249.177445 
L 91.562043 -249.294657 
L 90.327808 -249.412034 
L 89.093573 -249.529578 
L 87.859337 -249.64729 
L 86.625102 -249.765174 
L 85.390867 -249.883232 
L 84.156631 -250.001466 
L 82.922396 -250.11988 
L 81.688161 -250.238475 
L 80.453925 -250.357255 
L 79.21969 -250.476221 
L 77.985455 -250.595377 
L 76.751219 -250.714725 
L 75.516984 -250.834269 
L 74.282749 -250.954009 
L 73.048513 -251.07395 
L 71.814278 -251.194093 
L 70.580043 -251.314442 
L 69.345807 -251.434999 
L 68.111572 -251.555766 
L 66.877337 -251.676747 
L 65.643101 -251.797943 
L 64.408866 -251.919358 
L 63.174631 -252.040994 
z
"/>
    </defs>
    <g clip-path="url(#p2ab24f3c8d)">
     <use xlink:href="#maa08e0de46" x="0" y="269.592812" style="fill: #2c5aa0; fill-opacity: 0.16"/>
    </g>
   </g>
   <g id="FillBetweenPolyCollection_2">
    <defs>
     <path id="m7d12dd1543" d="M 63.174631 -248.676797 
L 63.174631 -242.914443 
L 64.408866 -242.675201 
L 65.643101 -242.436173 
L 66.877337 -242.197212 
L 68.111572 -241.9579 
L 69.345807 -241.718246 
L 70.580043 -241.478259 
L 71.814278 -241.234778 
L 73.048513 -240.961123 
L 74.282749 -240.649519 
L 75.516984 -240.375269 
L 76.751219 -240.11101 
L 77.985455 -239.844826 
L 79.21969 -239.578166 
L 80.453925 -239.311034 
L 81.688161 -239.043433 
L 82.922396 -238.775368 
L 84.156631 -238.506843 
L 85.390867 -238.237863 
L 86.625102 -237.968432 
L 87.859337 -237.698555 
L 89.093573 -237.428237 
L 90.327808 -237.157483 
L 91.562043 -236.886299 
L 92.796279 -236.619139 
L 94.030514 -236.347402 
L 95.264749 -236.072732 
L 96.498985 -235.797331 
L 97.73322 -235.521509 
L 98.967455 -235.245273 
L 100.201691 -234.968626 
L 101.435926 -234.691574 
L 102.670161 -234.414123 
L 103.904397 -234.133411 
L 105.138632 -233.846808 
L 106.372867 -233.535181 
L 107.607103 -233.197757 
L 108.841338 -232.842513 
L 110.075573 -232.472768 
L 111.309809 -232.10154 
L 112.544044 -231.729812 
L 113.778279 -231.357592 
L 115.012515 -230.984888 
L 116.24675 -230.61171 
L 117.480985 -230.238064 
L 118.715221 -229.863961 
L 119.949456 -229.482813 
L 121.183691 -229.090044 
L 122.417927 -228.697333 
L 123.652162 -228.30289 
L 124.886397 -227.908014 
L 126.120633 -227.512713 
L 127.354868 -227.116997 
L 128.589103 -226.720875 
L 129.823338 -226.324355 
L 131.057574 -225.927447 
L 132.291809 -225.530159 
L 133.526044 -225.132499 
L 134.76028 -224.734476 
L 135.994515 -224.330734 
L 137.22875 -223.915379 
L 138.462986 -223.505802 
L 139.697221 -223.096995 
L 140.931456 -222.669716 
L 142.165692 -222.234449 
L 143.399927 -221.796981 
L 144.634162 -221.359666 
L 145.868398 -220.921975 
L 147.102633 -220.483921 
L 148.336868 -220.047336 
L 149.571104 -219.618542 
L 150.805339 -219.194838 
L 152.039574 -218.777094 
L 153.27381 -218.359004 
L 154.508045 -217.940577 
L 155.74228 -217.521823 
L 156.976516 -217.102752 
L 158.210751 -216.683371 
L 159.444986 -216.26369 
L 160.679222 -215.843717 
L 161.913457 -215.423459 
L 163.147692 -215.002926 
L 164.381928 -214.582125 
L 165.616163 -214.161062 
L 166.850398 -213.739746 
L 168.084634 -213.318182 
L 169.318869 -212.900999 
L 170.553104 -212.463241 
L 171.78734 -211.991804 
L 173.021575 -211.493457 
L 174.25581 -210.986975 
L 175.490046 -210.510016 
L 176.724281 -210.050586 
L 177.958516 -209.582238 
L 179.192752 -209.113834 
L 180.426987 -208.637464 
L 181.661222 -208.150701 
L 182.895458 -207.663541 
L 184.129693 -207.17599 
L 185.363928 -206.688056 
L 186.598164 -206.199748 
L 187.832399 -205.711072 
L 189.066634 -205.222036 
L 190.30087 -204.732648 
L 191.535105 -204.242914 
L 192.76934 -203.752841 
L 194.003576 -203.262437 
L 195.237811 -202.771708 
L 196.472046 -202.280661 
L 197.706282 -201.789302 
L 198.940517 -201.297638 
L 200.174752 -200.804978 
L 201.408988 -200.305034 
L 202.643223 -199.793055 
L 203.877458 -199.275596 
L 205.111694 -198.775682 
L 206.345929 -198.278981 
L 207.580164 -197.75051 
L 208.8144 -197.15289 
L 210.048635 -196.557347 
L 211.28287 -195.960531 
L 212.517106 -195.359152 
L 213.751341 -194.756991 
L 214.985576 -194.154068 
L 216.219812 -193.550403 
L 217.454047 -192.946016 
L 218.688282 -192.340924 
L 219.922518 -191.735147 
L 221.156753 -191.128703 
L 222.390988 -190.521609 
L 223.625224 -189.913882 
L 224.859459 -189.305539 
L 226.093694 -188.696597 
L 227.32793 -188.08707 
L 228.562165 -187.476976 
L 229.7964 -186.866327 
L 231.030636 -186.25514 
L 232.264871 -185.642348 
L 233.499106 -185.027271 
L 234.733342 -184.402925 
L 235.967577 -183.759607 
L 237.201812 -183.104901 
L 238.436048 -182.427559 
L 239.670283 -181.705795 
L 240.904518 -180.96443 
L 242.138754 -180.213117 
L 243.372989 -179.454435 
L 244.607224 -178.689727 
L 245.84146 -177.931992 
L 247.075695 -177.175385 
L 248.30993 -176.418382 
L 249.544165 -175.66099 
L 250.778401 -174.90322 
L 252.012636 -174.14508 
L 253.246871 -173.386578 
L 254.481107 -172.627722 
L 255.715342 -171.868521 
L 256.949577 -171.108982 
L 258.183813 -170.349113 
L 259.418048 -169.588922 
L 260.652283 -168.828416 
L 261.886519 -168.067601 
L 263.120754 -167.30696 
L 264.354989 -166.547632 
L 265.589225 -165.787505 
L 266.82346 -165.027551 
L 268.057695 -164.264652 
L 269.291931 -163.499958 
L 270.526166 -162.737011 
L 271.760401 -161.975594 
L 272.994637 -161.229154 
L 274.228872 -160.469521 
L 275.463107 -159.694359 
L 276.697343 -158.905855 
L 277.931578 -158.112275 
L 279.165813 -157.315414 
L 280.400049 -156.51744 
L 281.634284 -155.707292 
L 282.868519 -154.891876 
L 284.102755 -154.075579 
L 285.33699 -153.258919 
L 286.571225 -152.441903 
L 287.805461 -151.624536 
L 289.039696 -150.806826 
L 290.273931 -149.988779 
L 291.508167 -149.170403 
L 292.742402 -148.351703 
L 293.976637 -147.532875 
L 295.210873 -146.713945 
L 296.445108 -145.894909 
L 297.679343 -145.072667 
L 298.913579 -144.248888 
L 300.147814 -143.425092 
L 301.382049 -142.602081 
L 302.616285 -141.781567 
L 303.85052 -140.959265 
L 305.084755 -140.129071 
L 306.318991 -139.295056 
L 307.553226 -138.436402 
L 308.787461 -137.577226 
L 310.021697 -136.720719 
L 311.255932 -135.866957 
L 312.490167 -135.017638 
L 313.724403 -134.17613 
L 314.958638 -133.337237 
L 316.192873 -132.494294 
L 317.427109 -131.655112 
L 318.661344 -130.820963 
L 319.895579 -129.994405 
L 321.129815 -129.172275 
L 322.36405 -128.349803 
L 323.598285 -127.523266 
L 324.832521 -126.693594 
L 326.066756 -125.864064 
L 327.300991 -125.034206 
L 328.535227 -124.204622 
L 329.769462 -123.376869 
L 331.003697 -122.550743 
L 332.237933 -121.725162 
L 333.472168 -120.89831 
L 334.706403 -120.070583 
L 335.940639 -119.242429 
L 337.174874 -118.421619 
L 338.409109 -117.605571 
L 339.643345 -116.787436 
L 340.87758 -115.952231 
L 342.111815 -115.097817 
L 343.346051 -114.240945 
L 344.580286 -113.388232 
L 345.814521 -112.526528 
L 347.048757 -111.654032 
L 348.282992 -110.767871 
L 349.517227 -109.882055 
L 350.751463 -108.985181 
L 351.985698 -108.091516 
L 353.219933 -107.211644 
L 354.454169 -106.321257 
L 355.688404 -105.43089 
L 356.922639 -104.530701 
L 358.156875 -103.622956 
L 359.39111 -102.710722 
L 360.625345 -101.791189 
L 361.859581 -100.859039 
L 363.093816 -99.928127 
L 364.328051 -98.994642 
L 365.562287 -98.055714 
L 366.796522 -97.112657 
L 368.030757 -96.167784 
L 369.264992 -95.216658 
L 370.499228 -94.256575 
L 371.733463 -93.296847 
L 372.967698 -92.334172 
L 374.201934 -91.363256 
L 375.436169 -90.393801 
L 376.670404 -89.420237 
L 377.90464 -88.428922 
L 379.138875 -87.44175 
L 380.37311 -86.440069 
L 381.607346 -85.442806 
L 382.841581 -84.440183 
L 384.075816 -83.454748 
L 385.310052 -82.477639 
L 386.544287 -81.517077 
L 387.778522 -80.564931 
L 389.012758 -79.623284 
L 390.246993 -78.658048 
L 391.481228 -77.686164 
L 392.715464 -76.709264 
L 393.949699 -75.73809 
L 395.183934 -74.783535 
L 396.41817 -73.83055 
L 397.652405 -72.875658 
L 398.88664 -71.922146 
L 400.120876 -70.972049 
L 401.355111 -70.027704 
L 402.589346 -69.084051 
L 403.823582 -68.135487 
L 405.057817 -67.188503 
L 406.292052 -66.234877 
L 407.526288 -65.271732 
L 408.760523 -64.311463 
L 409.994758 -63.353201 
L 411.228994 -62.38793 
L 412.463229 -61.390531 
L 413.697464 -60.390055 
L 414.9317 -59.393637 
L 416.165935 -58.399074 
L 417.40017 -57.39053 
L 418.634406 -56.374615 
L 419.868641 -55.371733 
L 421.102876 -54.37637 
L 422.337112 -53.358433 
L 423.571347 -52.330855 
L 424.805582 -51.284336 
L 426.039818 -50.232059 
L 427.274053 -49.162788 
L 428.508288 -48.108213 
L 429.742524 -47.070475 
L 430.976759 -46.03423 
L 432.210994 -45.004631 
L 432.210994 -78.913546 
L 432.210994 -78.913546 
L 430.976759 -79.857075 
L 429.742524 -80.804115 
L 428.508288 -81.754085 
L 427.274053 -82.711781 
L 426.039818 -83.677743 
L 424.805582 -84.632623 
L 423.571347 -85.583851 
L 422.337112 -86.521252 
L 421.102876 -87.453798 
L 419.868641 -88.369166 
L 418.634406 -89.291686 
L 417.40017 -90.22379 
L 416.165935 -91.148009 
L 414.9317 -92.059883 
L 413.697464 -92.972215 
L 412.463229 -93.88768 
L 411.228994 -94.799835 
L 409.994758 -95.672208 
L 408.760523 -96.540177 
L 407.526288 -97.409589 
L 406.292052 -98.283039 
L 405.057817 -99.142156 
L 403.823582 -99.992203 
L 402.589346 -100.846181 
L 401.355111 -101.696956 
L 400.120876 -102.55118 
L 398.88664 -103.413844 
L 397.652405 -104.279086 
L 396.41817 -105.144495 
L 395.183934 -106.004988 
L 393.949699 -106.867553 
L 392.715464 -107.741124 
L 391.481228 -108.618624 
L 390.246993 -109.492199 
L 389.012758 -110.361941 
L 387.778522 -111.220486 
L 386.544287 -112.088398 
L 385.310052 -112.961484 
L 384.075816 -113.849905 
L 382.841581 -114.744606 
L 381.607346 -115.649851 
L 380.37311 -116.549655 
L 379.138875 -117.450353 
L 377.90464 -118.335543 
L 376.670404 -119.226465 
L 375.436169 -120.099639 
L 374.201934 -120.969518 
L 372.967698 -121.844407 
L 371.733463 -122.709663 
L 370.499228 -123.573262 
L 369.264992 -124.438326 
L 368.030757 -125.297267 
L 366.796522 -126.148254 
L 365.562287 -126.997174 
L 364.328051 -127.839597 
L 363.093816 -128.679507 
L 361.859581 -129.516998 
L 360.625345 -130.357101 
L 359.39111 -131.189262 
L 358.156875 -132.016838 
L 356.922639 -132.841503 
L 355.688404 -133.662098 
L 354.454169 -134.476109 
L 353.219933 -135.291398 
L 351.985698 -136.097438 
L 350.751463 -136.90802 
L 349.517227 -137.716232 
L 348.282992 -138.516385 
L 347.048757 -139.316005 
L 345.814521 -140.097093 
L 344.580286 -140.866758 
L 343.346051 -141.6272 
L 342.111815 -142.386432 
L 340.87758 -143.131574 
L 339.643345 -143.852837 
L 338.409109 -144.553423 
L 337.174874 -145.249716 
L 335.940639 -145.936585 
L 334.706403 -146.628717 
L 333.472168 -147.321447 
L 332.237933 -148.014621 
L 331.003697 -148.707545 
L 329.769462 -149.402185 
L 328.535227 -150.098837 
L 327.300991 -150.797742 
L 326.066756 -151.497578 
L 324.832521 -152.197748 
L 323.598285 -152.898968 
L 322.36405 -153.597669 
L 321.129815 -154.29286 
L 319.895579 -154.988392 
L 318.661344 -155.687064 
L 317.427109 -156.390477 
L 316.192873 -157.096814 
L 314.958638 -157.806641 
L 313.724403 -158.510559 
L 312.490167 -159.215957 
L 311.255932 -159.930697 
L 310.021697 -160.651347 
L 308.787461 -161.374219 
L 307.553226 -162.094206 
L 306.318991 -162.815376 
L 305.084755 -163.517249 
L 303.85052 -164.211133 
L 302.616285 -164.892843 
L 301.382049 -165.570437 
L 300.147814 -166.24977 
L 298.913579 -166.929888 
L 297.679343 -167.610315 
L 296.445108 -168.289145 
L 295.210873 -168.964454 
L 293.976637 -169.640369 
L 292.742402 -170.316603 
L 291.508167 -170.993347 
L 290.273931 -171.670414 
L 289.039696 -172.347811 
L 287.805461 -173.025544 
L 286.571225 -173.703621 
L 285.33699 -174.382047 
L 284.102755 -175.06083 
L 282.868519 -175.739978 
L 281.634284 -176.418959 
L 280.400049 -177.095229 
L 279.165813 -177.765191 
L 277.931578 -178.433693 
L 276.697343 -179.099469 
L 275.463107 -179.762841 
L 274.228872 -180.412208 
L 272.994637 -181.045707 
L 271.760401 -181.66308 
L 270.526166 -182.281064 
L 269.291931 -182.89915 
L 268.057695 -183.519105 
L 266.82346 -184.138645 
L 265.589225 -184.756719 
L 264.354989 -185.375585 
L 263.120754 -185.993785 
L 261.886519 -186.614231 
L 260.652283 -187.235591 
L 259.418048 -187.857259 
L 258.183813 -188.479243 
L 256.949577 -189.101549 
L 255.715342 -189.724185 
L 254.481107 -190.347158 
L 253.246871 -190.970477 
L 252.012636 -191.59415 
L 250.778401 -192.218184 
L 249.544165 -192.842589 
L 248.30993 -193.467372 
L 247.075695 -194.092544 
L 245.84146 -194.718112 
L 244.607224 -195.343582 
L 243.372989 -195.971191 
L 242.138754 -196.589353 
L 240.904518 -197.202401 
L 239.670283 -197.809882 
L 238.436048 -198.394691 
L 237.201812 -198.941593 
L 235.967577 -199.466282 
L 234.733342 -199.976642 
L 233.499106 -200.464801 
L 232.264871 -200.944466 
L 231.030636 -201.42211 
L 229.7964 -201.898777 
L 228.562165 -202.375982 
L 227.32793 -202.853741 
L 226.093694 -203.332069 
L 224.859459 -203.81098 
L 223.625224 -204.290491 
L 222.390988 -204.770618 
L 221.156753 -205.251378 
L 219.922518 -205.732788 
L 218.688282 -206.214865 
L 217.454047 -206.697627 
L 216.219812 -207.181094 
L 214.985576 -207.665283 
L 213.751341 -208.150214 
L 212.517106 -208.635907 
L 211.28287 -209.122382 
L 210.048635 -209.606227 
L 208.8144 -210.08829 
L 207.580164 -210.567365 
L 206.345929 -211.005326 
L 205.111694 -211.41737 
L 203.877458 -211.83332 
L 202.643223 -212.266763 
L 201.408988 -212.696965 
L 200.174752 -213.113996 
L 198.940517 -213.522709 
L 197.706282 -213.930692 
L 196.472046 -214.33898 
L 195.237811 -214.74758 
L 194.003576 -215.156499 
L 192.76934 -215.565742 
L 191.535105 -215.975317 
L 190.30087 -216.385231 
L 189.066634 -216.79549 
L 187.832399 -217.206101 
L 186.598164 -217.617073 
L 185.363928 -218.028412 
L 184.129693 -218.440126 
L 182.895458 -218.852222 
L 181.661222 -219.264709 
L 180.426987 -219.677594 
L 179.192752 -220.084199 
L 177.958516 -220.485963 
L 176.724281 -220.888972 
L 175.490046 -221.284654 
L 174.25581 -221.698269 
L 173.021575 -222.129169 
L 171.78734 -222.546908 
L 170.553104 -222.931097 
L 169.318869 -223.277594 
L 168.084634 -223.602249 
L 166.850398 -223.929691 
L 165.616163 -224.257379 
L 164.381928 -224.585322 
L 163.147692 -224.913525 
L 161.913457 -225.241997 
L 160.679222 -225.570745 
L 159.444986 -225.899777 
L 158.210751 -226.229101 
L 156.976516 -226.558725 
L 155.74228 -226.888659 
L 154.508045 -227.21891 
L 153.27381 -227.549488 
L 152.039574 -227.880403 
L 150.805339 -228.211664 
L 149.571104 -228.547037 
L 148.336868 -228.885414 
L 147.102633 -229.230971 
L 145.868398 -229.578493 
L 144.634162 -229.926378 
L 143.399927 -230.274638 
L 142.165692 -230.623802 
L 140.931456 -230.971544 
L 139.697221 -231.312777 
L 138.462986 -231.643855 
L 137.22875 -231.980531 
L 135.994515 -232.33372 
L 134.76028 -232.676782 
L 133.526044 -233.014954 
L 132.291809 -233.35349 
L 131.057574 -233.692398 
L 129.823338 -234.031685 
L 128.589103 -234.371361 
L 127.354868 -234.711435 
L 126.120633 -235.051915 
L 124.886397 -235.39281 
L 123.652162 -235.734129 
L 122.417927 -236.075882 
L 121.183691 -236.417286 
L 119.949456 -236.760776 
L 118.715221 -237.095241 
L 117.480985 -237.425112 
L 116.24675 -237.755442 
L 115.012515 -238.086238 
L 113.778279 -238.417509 
L 112.544044 -238.749264 
L 111.309809 -239.08151 
L 110.075573 -239.414257 
L 108.841338 -239.746994 
L 107.607103 -240.072679 
L 106.372867 -240.38738 
L 105.138632 -240.679137 
L 103.904397 -240.941584 
L 102.670161 -241.194304 
L 101.435926 -241.441873 
L 100.201691 -241.689842 
L 98.967455 -241.938216 
L 97.73322 -242.187 
L 96.498985 -242.436199 
L 95.264749 -242.685818 
L 94.030514 -242.935658 
L 92.796279 -243.18396 
L 91.562043 -243.426421 
L 90.327808 -243.671299 
L 89.093573 -243.916608 
L 87.859337 -244.162353 
L 86.625102 -244.408539 
L 85.390867 -244.65517 
L 84.156631 -244.902253 
L 82.922396 -245.149791 
L 81.688161 -245.397788 
L 80.453925 -245.64625 
L 79.21969 -245.89518 
L 77.985455 -246.144583 
L 76.751219 -246.394462 
L 75.516984 -246.640326 
L 74.282749 -246.88402 
L 73.048513 -247.144373 
L 71.814278 -247.363463 
L 70.580043 -247.552592 
L 69.345807 -247.738728 
L 68.111572 -247.925197 
L 66.877337 -248.112008 
L 65.643101 -248.29917 
L 64.408866 -248.487003 
L 63.174631 -248.676797 
z
"/>
    </defs>
    <g clip-path="url(#p2ab24f3c8d)">
     <use xlink:href="#m7d12dd1543" x="0" y="269.592812" style="fill: #d65f00; fill-opacity: 0.16"/>
    </g>
   </g>
   <g id="matplotlib.axis_1">
    <g id="xtick_1">
     <g id="line2d_1">
      <path d="M 72.1355 234.94 
L 72.1355 7.2 
" clip-path="url(#p2ab24f3c8d)" style="fill: none; stroke: #eeeeee; stroke-width: 0.5; stroke-linecap: square"/>
     </g>
     <g id="line2d_2">
      <defs>
       <path id="mc9fc9c4f90" d="M 0 0 
L 0 3.5 
" style="stroke: #000000; stroke-width: 0.8"/>
      </defs>
      <g>
       <use xlink:href="#mc9fc9c4f90" x="72.1355" y="234.94" style="stroke: #000000; stroke-width: 0.8"/>
      </g>
     </g>
     <g id="text_1">
      <text style="font-size: 8px; font-family: 'DejaVu Sans', 'Bitstream Vera Sans', 'Computer Modern Sans Serif', 'Lucida Grande', 'Verdana', 'Geneva', 'Lucid', 'Arial', 'Helvetica', 'Avant Garde', sans-serif; text-anchor: middle" x="72.1355" y="248.01875" transform="rotate(-0 72.1355 248.01875)">0.1</text>
     </g>
    </g>
    <g id="xtick_2">
     <g id="line2d_3">
      <path d="M 135.240213 234.94 
L 135.240213 7.2 
" clip-path="url(#p2ab24f3c8d)" style="fill: none; stroke: #eeeeee; stroke-width: 0.5; stroke-linecap: square"/>
     </g>
     <g id="line2d_4">
      <g>
       <use xlink:href="#mc9fc9c4f90" x="135.240213" y="234.94" style="stroke: #000000; stroke-width: 0.8"/>
      </g>
     </g>
     <g id="text_2">
      <text style="font-size: 8px; font-family: 'DejaVu Sans', 'Bitstream Vera Sans', 'Computer Modern Sans Serif', 'Lucida Grande', 'Verdana', 'Geneva', 'Lucid', 'Arial', 'Helvetica', 'Avant Garde', sans-serif; text-anchor: middle" x="135.240213" y="248.01875" transform="rotate(-0 135.240213 248.01875)">0.2</text>
     </g>
    </g>
    <g id="xtick_3">
     <g id="line2d_5">
      <path d="M 198.344927 234.94 
L 198.344927 7.2 
" clip-path="url(#p2ab24f3c8d)" style="fill: none; stroke: #eeeeee; stroke-width: 0.5; stroke-linecap: square"/>
     </g>
     <g id="line2d_6">
      <g>
       <use xlink:href="#mc9fc9c4f90" x="198.344927" y="234.94" style="stroke: #000000; stroke-width: 0.8"/>
      </g>
     </g>
     <g id="text_3">
      <text style="font-size: 8px; font-family: 'DejaVu Sans', 'Bitstream Vera Sans', 'Computer Modern Sans Serif', 'Lucida Grande', 'Verdana', 'Geneva', 'Lucid', 'Arial', 'Helvetica', 'Avant Garde', sans-serif; text-anchor: middle" x="198.344927" y="248.01875" transform="rotate(-0 198.344927 248.01875)">0.3</text>
     </g>
    </g>
    <g id="xtick_4">
     <g id="line2d_7">
      <path d="M 261.44964 234.94 
L 261.44964 7.2 
" clip-path="url(#p2ab24f3c8d)" style="fill: none; stroke: #eeeeee; stroke-width: 0.5; stroke-linecap: square"/>
     </g>
     <g id="line2d_8">
      <g>
       <use xlink:href="#mc9fc9c4f90" x="261.44964" y="234.94" style="stroke: #000000; stroke-width: 0.8"/>
      </g>
     </g>
     <g id="text_4">
      <text style="font-size: 8px; font-family: 'DejaVu Sans', 'Bitstream Vera Sans', 'Computer Modern Sans Serif', 'Lucida Grande', 'Verdana', 'Geneva', 'Lucid', 'Arial', 'Helvetica', 'Avant Garde', sans-serif; text-anchor: middle" x="261.44964" y="248.01875" transform="rotate(-0 261.44964 248.01875)">0.4</text>
     </g>
    </g>
    <g id="xtick_5">
     <g id="line2d_9">
      <path d="M 324.554353 234.94 
L 324.554353 7.2 
" clip-path="url(#p2ab24f3c8d)" style="fill: none; stroke: #eeeeee; stroke-width: 0.5; stroke-linecap: square"/>
     </g>
     <g id="line2d_10">
      <g>
       <use xlink:href="#mc9fc9c4f90" x="324.554353" y="234.94" style="stroke: #000000; stroke-width: 0.8"/>
      </g>
     </g>
     <g id="text_5">
      <text style="font-size: 8px; font-family: 'DejaVu Sans', 'Bitstream Vera Sans', 'Computer Modern Sans Serif', 'Lucida Grande', 'Verdana', 'Geneva', 'Lucid', 'Arial', 'Helvetica', 'Avant Garde', sans-serif; text-anchor: middle" x="324.554353" y="248.01875" transform="rotate(-0 324.554353 248.01875)">0.5</text>
     </g>
    </g>
    <g id="xtick_6">
     <g id="line2d_11">
      <path d="M 387.659067 234.94 
L 387.659067 7.2 
" clip-path="url(#p2ab24f3c8d)" style="fill: none; stroke: #eeeeee; stroke-width: 0.5; stroke-linecap: square"/>
     </g>
     <g id="line2d_12">
      <g>
       <use xlink:href="#mc9fc9c4f90" x="387.659067" y="234.94" style="stroke: #000000; stroke-width: 0.8"/>
      </g>
     </g>
     <g id="text_6">
      <text style="font-size: 8px; font-family: 'DejaVu Sans', 'Bitstream Vera Sans', 'Computer Modern Sans Serif', 'Lucida Grande', 'Verdana', 'Geneva', 'Lucid', 'Arial', 'Helvetica', 'Avant Garde', sans-serif; text-anchor: middle" x="387.659067" y="248.01875" transform="rotate(-0 387.659067 248.01875)">0.6</text>
     </g>
    </g>
    <g id="text_7">
     <text style="font-size: 9px; font-family: 'DejaVu Sans', 'Bitstream Vera Sans', 'Computer Modern Sans Serif', 'Lucida Grande', 'Verdana', 'Geneva', 'Lucid', 'Arial', 'Helvetica', 'Avant Garde', sans-serif; text-anchor: middle" x="247.692813" y="260.521094" transform="rotate(-0 247.692813 260.521094)">Cumulative shots (millions)</text>
    </g>
   </g>
   <g id="matplotlib.axis_2">
    <g id="ytick_1">
     <g id="line2d_13">
      <path d="M 44.722813 223.926814 
L 450.662813 223.926814 
" clip-path="url(#p2ab24f3c8d)" style="fill: none; stroke: #d8d8d8; stroke-width: 0.7; stroke-linecap: square"/>
     </g>
     <g id="line2d_14">
      <defs>
       <path id="ma3027b6f90" d="M 0 0 
L -3.5 0 
" style="stroke: #000000; stroke-width: 0.8"/>
      </defs>
      <g>
       <use xlink:href="#ma3027b6f90" x="44.722813" y="223.926814" style="stroke: #000000; stroke-width: 0.8"/>
      </g>
     </g>
     <g id="text_8">
      <text style="font-size: 8px; font-family: 'DejaVu Sans', 'Bitstream Vera Sans', 'Computer Modern Sans Serif', 'Lucida Grande', 'Verdana', 'Geneva', 'Lucid', 'Arial', 'Helvetica', 'Avant Garde', sans-serif; text-anchor: end" x="37.722813" y="226.966189" transform="rotate(-0 37.722813 226.966189)">0.65</text>
     </g>
    </g>
    <g id="ytick_2">
     <g id="line2d_15">
      <path d="M 44.722813 189.210598 
L 450.662813 189.210598 
" clip-path="url(#p2ab24f3c8d)" style="fill: none; stroke: #d8d8d8; stroke-width: 0.7; stroke-linecap: square"/>
     </g>
     <g id="line2d_16">
      <g>
       <use xlink:href="#ma3027b6f90" x="44.722813" y="189.210598" style="stroke: #000000; stroke-width: 0.8"/>
      </g>
     </g>
     <g id="text_9">
      <text style="font-size: 8px; font-family: 'DejaVu Sans', 'Bitstream Vera Sans', 'Computer Modern Sans Serif', 'Lucida Grande', 'Verdana', 'Geneva', 'Lucid', 'Arial', 'Helvetica', 'Avant Garde', sans-serif; text-anchor: end" x="37.722813" y="192.249973" transform="rotate(-0 37.722813 192.249973)">0.70</text>
     </g>
    </g>
    <g id="ytick_3">
     <g id="line2d_17">
      <path d="M 44.722813 154.494382 
L 450.662813 154.494382 
" clip-path="url(#p2ab24f3c8d)" style="fill: none; stroke: #d8d8d8; stroke-width: 0.7; stroke-linecap: square"/>
     </g>
     <g id="line2d_18">
      <g>
       <use xlink:href="#ma3027b6f90" x="44.722813" y="154.494382" style="stroke: #000000; stroke-width: 0.8"/>
      </g>
     </g>
     <g id="text_10">
      <text style="font-size: 8px; font-family: 'DejaVu Sans', 'Bitstream Vera Sans', 'Computer Modern Sans Serif', 'Lucida Grande', 'Verdana', 'Geneva', 'Lucid', 'Arial', 'Helvetica', 'Avant Garde', sans-serif; text-anchor: end" x="37.722813" y="157.533757" transform="rotate(-0 37.722813 157.533757)">0.75</text>
     </g>
    </g>
    <g id="ytick_4">
     <g id="line2d_19">
      <path d="M 44.722813 119.778166 
L 450.662813 119.778166 
" clip-path="url(#p2ab24f3c8d)" style="fill: none; stroke: #d8d8d8; stroke-width: 0.7; stroke-linecap: square"/>
     </g>
     <g id="line2d_20">
      <g>
       <use xlink:href="#ma3027b6f90" x="44.722813" y="119.778166" style="stroke: #000000; stroke-width: 0.8"/>
      </g>
     </g>
     <g id="text_11">
      <text style="font-size: 8px; font-family: 'DejaVu Sans', 'Bitstream Vera Sans', 'Computer Modern Sans Serif', 'Lucida Grande', 'Verdana', 'Geneva', 'Lucid', 'Arial', 'Helvetica', 'Avant Garde', sans-serif; text-anchor: end" x="37.722813" y="122.817541" transform="rotate(-0 37.722813 122.817541)">0.80</text>
     </g>
    </g>
    <g id="ytick_5">
     <g id="line2d_21">
      <path d="M 44.722813 85.06195 
L 450.662813 85.06195 
" clip-path="url(#p2ab24f3c8d)" style="fill: none; stroke: #d8d8d8; stroke-width: 0.7; stroke-linecap: square"/>
     </g>
     <g id="line2d_22">
      <g>
       <use xlink:href="#ma3027b6f90" x="44.722813" y="85.06195" style="stroke: #000000; stroke-width: 0.8"/>
      </g>
     </g>
     <g id="text_12">
      <text style="font-size: 8px; font-family: 'DejaVu Sans', 'Bitstream Vera Sans', 'Computer Modern Sans Serif', 'Lucida Grande', 'Verdana', 'Geneva', 'Lucid', 'Arial', 'Helvetica', 'Avant Garde', sans-serif; text-anchor: end" x="37.722813" y="88.101325" transform="rotate(-0 37.722813 88.101325)">0.85</text>
     </g>
    </g>
    <g id="ytick_6">
     <g id="line2d_23">
      <path d="M 44.722813 50.345734 
L 450.662813 50.345734 
" clip-path="url(#p2ab24f3c8d)" style="fill: none; stroke: #d8d8d8; stroke-width: 0.7; stroke-linecap: square"/>
     </g>
     <g id="line2d_24">
      <g>
       <use xlink:href="#ma3027b6f90" x="44.722813" y="50.345734" style="stroke: #000000; stroke-width: 0.8"/>
      </g>
     </g>
     <g id="text_13">
      <text style="font-size: 8px; font-family: 'DejaVu Sans', 'Bitstream Vera Sans', 'Computer Modern Sans Serif', 'Lucida Grande', 'Verdana', 'Geneva', 'Lucid', 'Arial', 'Helvetica', 'Avant Garde', sans-serif; text-anchor: end" x="37.722813" y="53.385109" transform="rotate(-0 37.722813 53.385109)">0.90</text>
     </g>
    </g>
    <g id="ytick_7">
     <g id="line2d_25">
      <path d="M 44.722813 15.629518 
L 450.662813 15.629518 
" clip-path="url(#p2ab24f3c8d)" style="fill: none; stroke: #d8d8d8; stroke-width: 0.7; stroke-linecap: square"/>
     </g>
     <g id="line2d_26">
      <g>
       <use xlink:href="#ma3027b6f90" x="44.722813" y="15.629518" style="stroke: #000000; stroke-width: 0.8"/>
      </g>
     </g>
     <g id="text_14">
      <text style="font-size: 8px; font-family: 'DejaVu Sans', 'Bitstream Vera Sans', 'Computer Modern Sans Serif', 'Lucida Grande', 'Verdana', 'Geneva', 'Lucid', 'Arial', 'Helvetica', 'Avant Garde', sans-serif; text-anchor: end" x="37.722813" y="18.668893" transform="rotate(-0 37.722813 18.668893)">0.95</text>
     </g>
    </g>
    <g id="text_15">
     <text style="font-size: 9px; font-family: 'DejaVu Sans', 'Bitstream Vera Sans', 'Computer Modern Sans Serif', 'Lucida Grande', 'Verdana', 'Geneva', 'Lucid', 'Arial', 'Helvetica', 'Avant Garde', sans-serif; text-anchor: middle" x="14.038594" y="121.07" transform="rotate(-90 14.038594 121.07)">Best-so-far normalized mean uncut edges</text>
    </g>
   </g>
   <g id="line2d_27">
    <path d="M 63.174631 20.088239 
L 116.24675 25.83383 
L 169.318869 32.754749 
L 218.688282 41.456363 
L 274.228872 52.53528 
L 307.553226 59.779338 
L 326.066756 63.887208 
L 331.003697 65.216243 
L 380.37311 79.274663 
L 416.165935 91.49909 
L 432.210994 97.055175 
L 432.210994 97.055175 
" clip-path="url(#p2ab24f3c8d)" style="fill: none; stroke: #2c5aa0; stroke-width: 2; stroke-linecap: square"/>
   </g>
   <g id="line2d_28">
    <path d="M 63.174631 23.797192 
L 74.282749 25.826043 
L 106.372867 32.631532 
L 112.544044 34.353275 
L 127.354868 38.678597 
L 143.399927 43.557003 
L 156.976516 47.762074 
L 171.78734 52.323457 
L 182.895458 56.334931 
L 207.580164 65.433875 
L 233.499106 76.846777 
L 238.436048 79.181687 
L 243.372989 81.879999 
L 271.760401 97.773476 
L 276.697343 100.590151 
L 289.039696 108.015494 
L 307.553226 119.327508 
L 319.895579 127.101414 
L 342.111815 140.850688 
L 349.517227 145.793669 
L 363.093816 155.288996 
L 372.967698 162.503523 
L 384.075816 170.940486 
L 395.183934 179.198551 
L 413.697464 192.911678 
L 424.805582 201.634333 
L 432.210994 207.633724 
L 432.210994 207.633724 
" clip-path="url(#p2ab24f3c8d)" style="fill: none; stroke: #d65f00; stroke-width: 2; stroke-linecap: square"/>
   </g>
   <g id="patch_3">
    <path d="M 44.722813 234.94 
L 44.722813 7.2 
" style="fill: none; stroke: #000000; stroke-width: 0.8; stroke-linejoin: miter; stroke-linecap: square"/>
   </g>
   <g id="patch_4">
    <path d="M 44.722813 234.94 
L 450.662813 234.94 
" style="fill: none; stroke: #000000; stroke-width: 0.8; stroke-linejoin: miter; stroke-linecap: square"/>
   </g>
   <g id="text_16">
    <text style="font-size: 8px; font-family: 'DejaVu Sans', 'Bitstream Vera Sans', 'Computer Modern Sans Serif', 'Lucida Grande', 'Verdana', 'Geneva', 'Lucid', 'Arial', 'Helvetica', 'Avant Garde', sans-serif; text-anchor: start; fill: #555555" x="52.841613" y="224.16665" transform="rotate(-0 52.841613 224.16665)">100 problems, mean +/- 95% CI</text>
   </g>
   <g id="legend_1">
    <g id="line2d_29">
     <path d="M 383.210313 17.67875 
L 391.210313 17.67875 
L 399.210313 17.67875 
" style="fill: none; stroke: #2c5aa0; stroke-width: 2; stroke-linecap: square"/>
    </g>
    <g id="text_17">
     <text style="font-size: 8px; font-family: 'DejaVu Sans', 'Bitstream Vera Sans', 'Computer Modern Sans Serif', 'Lucida Grande', 'Verdana', 'Geneva', 'Lucid', 'Arial', 'Helvetica', 'Avant Garde', sans-serif; text-anchor: start" x="405.610313" y="20.47875" transform="rotate(-0 405.610313 20.47875)">DQAS</text>
    </g>
    <g id="line2d_30">
     <path d="M 383.210313 29.42125 
L 391.210313 29.42125 
L 399.210313 29.42125 
" style="fill: none; stroke: #d65f00; stroke-width: 2; stroke-linecap: square"/>
    </g>
    <g id="text_18">
     <text style="font-size: 8px; font-family: 'DejaVu Sans', 'Bitstream Vera Sans', 'Computer Modern Sans Serif', 'Lucida Grande', 'Verdana', 'Geneva', 'Lucid', 'Arial', 'Helvetica', 'Avant Garde', sans-serif; text-anchor: start" x="405.610313" y="32.22125" transform="rotate(-0 405.610313 32.22125)">ME-DQAS</text>
    </g>
   </g>
  </g>
 </g>
 <defs>
  <clipPath id="p2ab24f3c8d">
   <rect x="44.722813" y="7.2" width="405.94" height="227.74"/>
  </clipPath>
 </defs>
</svg>
