<?xml version="1.0" encoding="utf-8" standalone="no"?>
<!DOCTYPE svg PUBLIC "-//W3C//DTD SVG 1.1//EN"
  "http://www.w3.org/Graphics/SVG/1.1/DTD/svg11.dtd">
<svg xmlns:xlink="http://www.w3.org/1999/xlink" width="457.795142pt" height="269.007656pt" viewBox="0 0 457.795142 269.007656" xmlns="http://www.w3.org/2000/svg" version="1.1">
 <metadata>
  <rdf:RDF xmlns:dc="http://purl.org/dc/elements/1.1/" xmlns:cc="http://creativecommons.org/ns#" xmlns:rdf="http://www.w3.org/1999/02/22-rdf-syntax-ns#">
   <cc:Work>
    <dc:type rdf:resource="http://purl.org/dc/dcmitype/StillImage"/>
    <dc:date>2026-06-29T10:53:13.273857</dc:date>
    <dc:format>image/svg+xml</dc:format>
    <dc:creator>
     <cc:Agent>
      <dc:title>Matplotlib v3.10.9, https://matplotlib.org/</dc:title>
     </cc:Agent>
    </dc:creator>
   </cc:Work>
  </rdf:RDF>
 </metadata>
 <defs>
  <style type="text/css">*{stroke-linejoin: round; stroke-linecap: butt}</style>
 </defs>
 <g id="figure_1">
  <g id="patch_1">
   <path d="M 0 269.007656 
L 457.795142 269.007656 
L 457.795142 0 
L 0 0 
z
" style="fill: #ffffff"/>
  </g>
  <g id="axes_1">
   <g id="patch_2">
    <path d="M 44.722813 234.354843 
L 444.771366 234.354843 
L 444.771366 7.765883 
L 44.722813 7.765883 
z
" style="fill: #ffffff"/>
   </g>
   <g id="FillBetweenPolyCollection_1">
    <defs>
     <path id="m8f8a4f99f0" d="M 62.906838 -250.942274 
L 62.906838 -92.33725 
L 64.12316 -92.242778 
L 65.339483 -92.148301 
L 66.555806 -92.053817 
L 67.772129 -91.959326 
L 68.988451 -91.86483 
L 70.204774 -91.770327 
L 71.421097 -91.675818 
L 72.63742 -91.581303 
L 73.853742 -91.486782 
L 75.070065 -91.392255 
L 76.286388 -91.297721 
L 77.502711 -91.203181 
L 78.719033 -91.108635 
L 79.935356 -91.014082 
L 81.151679 -90.919524 
L 82.368002 -90.824959 
L 83.584324 -90.730388 
L 84.800647 -90.635811 
L 86.01697 -90.541227 
L 87.233293 -90.446637 
L 88.449615 -90.352041 
L 89.665938 -90.257439 
L 90.882261 -90.16283 
L 92.098584 -90.068216 
L 93.314906 -89.973595 
L 94.531229 -89.878967 
L 95.747552 -89.784334 
L 96.963875 -89.689694 
L 98.180197 -89.595048 
L 99.39652 -89.500396 
L 100.612843 -89.405737 
L 101.829166 -89.311072 
L 103.045489 -89.216401 
L 104.261811 -89.121724 
L 105.478134 -89.02704 
L 106.694457 -88.93235 
L 107.91078 -88.837654 
L 109.127102 -88.742952 
L 110.343425 -88.649871 
L 111.559748 -88.551519 
L 112.776071 -88.459751 
L 113.992393 -88.39007 
L 115.208716 -88.325382 
L 116.425039 -88.260227 
L 117.641362 -88.195064 
L 118.857684 -88.129891 
L 120.074007 -88.06471 
L 121.29033 -87.999519 
L 122.506653 -87.93432 
L 123.722975 -87.869111 
L 124.939298 -87.803893 
L 126.155621 -87.738666 
L 127.371944 -87.673431 
L 128.588266 -87.608186 
L 129.804589 -87.542932 
L 131.020912 -87.477668 
L 132.237235 -87.412396 
L 133.453557 -87.347115 
L 134.66988 -87.281825 
L 135.886203 -87.216525 
L 137.102526 -87.151217 
L 138.318848 -87.085899 
L 139.535171 -87.020572 
L 140.751494 -86.955236 
L 141.967817 -86.889891 
L 143.184139 -86.824537 
L 144.400462 -86.759174 
L 145.616785 -86.693801 
L 146.833108 -86.62842 
L 148.04943 -86.563029 
L 149.265753 -86.497629 
L 150.482076 -86.43222 
L 151.698399 -86.366802 
L 152.914721 -86.301374 
L 154.131044 -86.235938 
L 155.347367 -86.170492 
L 156.56369 -86.105037 
L 157.780012 -86.039573 
L 158.996335 -85.9741 
L 160.212658 -85.907048 
L 161.428981 -85.838475 
L 162.645303 -85.769468 
L 163.861626 -85.686252 
L 165.077949 -85.597992 
L 166.294272 -85.519708 
L 167.510594 -85.449294 
L 168.726917 -85.379916 
L 169.94324 -85.310526 
L 171.159563 -85.241124 
L 172.375885 -85.171711 
L 173.592208 -85.102287 
L 174.808531 -85.032851 
L 176.024854 -84.963403 
L 177.241176 -84.893945 
L 178.457499 -84.824474 
L 179.673822 -84.754992 
L 180.890145 -84.685499 
L 182.106467 -84.615994 
L 183.32279 -84.546477 
L 184.539113 -84.476949 
L 185.755436 -84.40741 
L 186.971758 -84.337858 
L 188.188081 -84.268296 
L 189.404404 -84.198721 
L 190.620727 -84.129136 
L 191.837049 -84.059538 
L 193.053372 -83.989929 
L 194.269695 -83.920308 
L 195.486018 -83.850676 
L 196.70234 -83.781032 
L 197.918663 -83.711377 
L 199.134986 -83.64171 
L 200.351309 -83.572031 
L 201.567631 -83.502341 
L 202.783954 -83.432639 
L 204.000277 -83.362925 
L 205.2166 -83.2932 
L 206.432922 -83.223463 
L 207.649245 -83.153715 
L 208.865568 -83.083954 
L 210.081891 -83.014182 
L 211.298214 -82.944399 
L 212.514536 -82.877521 
L 213.730859 -82.812892 
L 214.947182 -82.745392 
L 216.163505 -82.678625 
L 217.379827 -82.610131 
L 218.59615 -82.530381 
L 219.812473 -82.449527 
L 221.028796 -82.366092 
L 222.245118 -82.282642 
L 223.461441 -82.199178 
L 224.677764 -82.115699 
L 225.894087 -82.032205 
L 227.110409 -81.948697 
L 228.326732 -81.865174 
L 229.543055 -81.781636 
L 230.759378 -81.698084 
L 231.9757 -81.614517 
L 233.192023 -81.530936 
L 234.408346 -81.44734 
L 235.624669 -81.363729 
L 236.840991 -81.280104 
L 238.057314 -81.196464 
L 239.273637 -81.112809 
L 240.48996 -81.02914 
L 241.706282 -80.945456 
L 242.922605 -80.861757 
L 244.138928 -80.778044 
L 245.355251 -80.694317 
L 246.571573 -80.610574 
L 247.787896 -80.526817 
L 249.004219 -80.443045 
L 250.220542 -80.359259 
L 251.436864 -80.275458 
L 252.653187 -80.191642 
L 253.86951 -80.107811 
L 255.085833 -80.023966 
L 256.302155 -79.940106 
L 257.518478 -79.856232 
L 258.734801 -79.772343 
L 259.951124 -79.688439 
L 261.167446 -79.60452 
L 262.383769 -79.520587 
L 263.600092 -79.436639 
L 264.816415 -79.350024 
L 266.032737 -79.248941 
L 267.24906 -79.133242 
L 268.465383 -79.034429 
L 269.681706 -78.938513 
L 270.898028 -78.844225 
L 272.114351 -78.749142 
L 273.330674 -78.654801 
L 274.546997 -78.560442 
L 275.763319 -78.466065 
L 276.979642 -78.37167 
L 278.195965 -78.277257 
L 279.412288 -78.182826 
L 280.62861 -78.088378 
L 281.844933 -77.993911 
L 283.061256 -77.899427 
L 284.277579 -77.804924 
L 285.493901 -77.710404 
L 286.710224 -77.615865 
L 287.926547 -77.521309 
L 289.14287 -77.426734 
L 290.359192 -77.332142 
L 291.575515 -77.237531 
L 292.791838 -77.142902 
L 294.008161 -77.048256 
L 295.224483 -76.953591 
L 296.440806 -76.858908 
L 297.657129 -76.764207 
L 298.873452 -76.669488 
L 300.089774 -76.57475 
L 301.306097 -76.479995 
L 302.52242 -76.385221 
L 303.738743 -76.290429 
L 304.955065 -76.195619 
L 306.171388 -76.10079 
L 307.387711 -76.005944 
L 308.604034 -75.911079 
L 309.820356 -75.816196 
L 311.036679 -75.721294 
L 312.253002 -75.626375 
L 313.469325 -75.531437 
L 314.685648 -75.436663 
L 315.90197 -75.341459 
L 317.118293 -75.244255 
L 318.334616 -75.152808 
L 319.550939 -75.072482 
L 320.767261 -75.001438 
L 321.983584 -74.933842 
L 323.199907 -74.867736 
L 324.41623 -74.804707 
L 325.632552 -74.741673 
L 326.848875 -74.678633 
L 328.065198 -74.615589 
L 329.281521 -74.552539 
L 330.497843 -74.489485 
L 331.714166 -74.426425 
L 332.930489 -74.36336 
L 334.146812 -74.30029 
L 335.363134 -74.237215 
L 336.579457 -74.174135 
L 337.79578 -74.11105 
L 339.012103 -74.04796 
L 340.228425 -73.984864 
L 341.444748 -73.921764 
L 342.661071 -73.858658 
L 343.877394 -73.795547 
L 345.093716 -73.732431 
L 346.310039 -73.66931 
L 347.526362 -73.606184 
L 348.742685 -73.543053 
L 349.959007 -73.479917 
L 351.17533 -73.416775 
L 352.391653 -73.353629 
L 353.607976 -73.290477 
L 354.824298 -73.22732 
L 356.040621 -73.164158 
L 357.256944 -73.100991 
L 358.473267 -73.037819 
L 359.689589 -72.974642 
L 360.905912 -72.911459 
L 362.122235 -72.848272 
L 363.338558 -72.785079 
L 364.55488 -72.721882 
L 365.771203 -72.658465 
L 366.987526 -72.588205 
L 368.203849 -72.519584 
L 369.420171 -72.445594 
L 370.636494 -72.360728 
L 371.852817 -72.265359 
L 373.06914 -72.169269 
L 374.285462 -72.069846 
L 375.501785 -71.965841 
L 376.718108 -71.861798 
L 377.934431 -71.757729 
L 379.150753 -71.653635 
L 380.367076 -71.549515 
L 381.583399 -71.445369 
L 382.799722 -71.341197 
L 384.016044 -71.237 
L 385.232367 -71.132777 
L 386.44869 -71.028527 
L 387.665013 -70.924252 
L 388.881335 -70.819951 
L 390.097658 -70.715624 
L 391.313981 -70.611272 
L 392.530304 -70.506893 
L 393.746626 -70.402488 
L 394.962949 -70.298057 
L 396.179272 -70.1936 
L 397.395595 -70.089117 
L 398.611917 -69.984608 
L 399.82824 -69.880073 
L 401.044563 -69.775512 
L 402.260886 -69.670924 
L 403.477208 -69.566311 
L 404.693531 -69.461671 
L 405.909854 -69.357005 
L 407.126177 -69.252313 
L 408.342499 -69.147594 
L 409.558822 -69.042849 
L 410.775145 -68.938078 
L 411.991468 -68.833281 
L 413.20779 -68.728457 
L 414.424113 -68.623606 
L 415.640436 -68.51873 
L 416.856759 -68.413827 
L 418.073081 -68.311005 
L 419.289404 -68.211514 
L 420.505727 -68.116724 
L 421.72205 -68.032434 
L 422.938373 -67.960615 
L 424.154695 -67.881532 
L 425.371018 -67.796466 
L 426.587341 -67.704846 
L 426.587341 -218.754477 
L 426.587341 -218.754477 
L 425.371018 -218.864711 
L 424.154695 -218.967965 
L 422.938373 -219.065909 
L 421.72205 -219.163663 
L 420.505727 -219.286285 
L 419.289404 -219.425943 
L 418.073081 -219.571209 
L 416.856759 -219.71881 
L 415.640436 -219.867879 
L 414.424113 -220.016974 
L 413.20779 -220.166096 
L 411.991468 -220.315244 
L 410.775145 -220.464418 
L 409.558822 -220.613619 
L 408.342499 -220.762846 
L 407.126177 -220.9121 
L 405.909854 -221.06138 
L 404.693531 -221.210686 
L 403.477208 -221.360018 
L 402.260886 -221.509376 
L 401.044563 -221.658761 
L 399.82824 -221.808171 
L 398.611917 -221.957608 
L 397.395595 -222.107071 
L 396.179272 -222.25656 
L 394.962949 -222.406076 
L 393.746626 -222.555617 
L 392.530304 -222.705184 
L 391.313981 -222.854777 
L 390.097658 -223.004396 
L 388.881335 -223.154041 
L 387.665013 -223.303712 
L 386.44869 -223.453409 
L 385.232367 -223.603132 
L 384.016044 -223.752881 
L 382.799722 -223.902655 
L 381.583399 -224.052456 
L 380.367076 -224.202282 
L 379.150753 -224.352134 
L 377.934431 -224.502011 
L 376.718108 -224.651915 
L 375.501785 -224.801844 
L 374.285462 -224.951786 
L 373.06914 -225.094499 
L 371.852817 -225.23159 
L 370.636494 -225.367317 
L 369.420171 -225.468856 
L 368.203849 -225.549338 
L 366.987526 -225.623696 
L 365.771203 -225.699525 
L 364.55488 -225.77064 
L 363.338558 -225.841625 
L 362.122235 -225.912615 
L 360.905912 -225.98361 
L 359.689589 -226.05461 
L 358.473267 -226.125616 
L 357.256944 -226.196626 
L 356.040621 -226.267642 
L 354.824298 -226.338663 
L 353.607976 -226.409688 
L 352.391653 -226.480719 
L 351.17533 -226.551755 
L 349.959007 -226.622797 
L 348.742685 -226.693843 
L 347.526362 -226.764894 
L 346.310039 -226.835951 
L 345.093716 -226.907013 
L 343.877394 -226.97808 
L 342.661071 -227.049151 
L 341.444748 -227.120228 
L 340.228425 -227.191311 
L 339.012103 -227.262398 
L 337.79578 -227.33349 
L 336.579457 -227.404588 
L 335.363134 -227.47569 
L 334.146812 -227.546798 
L 332.930489 -227.617911 
L 331.714166 -227.689028 
L 330.497843 -227.760151 
L 329.281521 -227.831279 
L 328.065198 -227.902413 
L 326.848875 -227.973551 
L 325.632552 -228.044694 
L 324.41623 -228.115843 
L 323.199907 -228.186996 
L 321.983584 -228.262962 
L 320.767261 -228.343616 
L 319.550939 -228.429101 
L 318.334616 -228.533972 
L 317.118293 -228.669495 
L 315.90197 -228.808822 
L 314.685648 -228.945459 
L 313.469325 -229.081567 
L 312.253002 -229.21782 
L 311.036679 -229.35409 
L 309.820356 -229.490379 
L 308.604034 -229.626687 
L 307.387711 -229.763012 
L 306.171388 -229.899356 
L 304.955065 -230.035718 
L 303.738743 -230.172098 
L 302.52242 -230.308497 
L 301.306097 -230.444913 
L 300.089774 -230.581348 
L 298.873452 -230.717801 
L 297.657129 -230.854272 
L 296.440806 -230.990762 
L 295.224483 -231.127269 
L 294.008161 -231.263795 
L 292.791838 -231.400338 
L 291.575515 -231.5369 
L 290.359192 -231.67348 
L 289.14287 -231.810078 
L 287.926547 -231.946694 
L 286.710224 -232.083327 
L 285.493901 -232.219979 
L 284.277579 -232.356649 
L 283.061256 -232.493337 
L 281.844933 -232.630043 
L 280.62861 -232.766767 
L 279.412288 -232.903508 
L 278.195965 -233.040268 
L 276.979642 -233.177046 
L 275.763319 -233.313841 
L 274.546997 -233.450654 
L 273.330674 -233.587486 
L 272.114351 -233.724335 
L 270.898028 -233.861878 
L 269.681706 -233.998363 
L 268.465383 -234.134712 
L 267.24906 -234.265858 
L 266.032737 -234.417609 
L 264.816415 -234.536209 
L 263.600092 -234.631141 
L 262.383769 -234.72392 
L 261.167446 -234.816714 
L 259.951124 -234.909523 
L 258.734801 -235.002347 
L 257.518478 -235.095185 
L 256.302155 -235.188038 
L 255.085833 -235.280906 
L 253.86951 -235.373788 
L 252.653187 -235.466685 
L 251.436864 -235.559596 
L 250.220542 -235.652523 
L 249.004219 -235.745464 
L 247.787896 -235.838419 
L 246.571573 -235.93139 
L 245.355251 -236.024374 
L 244.138928 -236.117374 
L 242.922605 -236.210388 
L 241.706282 -236.303417 
L 240.48996 -236.396461 
L 239.273637 -236.489519 
L 238.057314 -236.582592 
L 236.840991 -236.675679 
L 235.624669 -236.768781 
L 234.408346 -236.861898 
L 233.192023 -236.955029 
L 231.9757 -237.048175 
L 230.759378 -237.141336 
L 229.543055 -237.234511 
L 228.326732 -237.327701 
L 227.110409 -237.420906 
L 225.894087 -237.514125 
L 224.677764 -237.607358 
L 223.461441 -237.700607 
L 222.245118 -237.79387 
L 221.028796 -237.887147 
L 219.812473 -237.980439 
L 218.59615 -238.071574 
L 217.379827 -238.160778 
L 216.163505 -238.238036 
L 214.947182 -238.327912 
L 213.730859 -238.423195 
L 212.514536 -238.517751 
L 211.298214 -238.61355 
L 210.081891 -238.711914 
L 208.865568 -238.810289 
L 207.649245 -238.908676 
L 206.432922 -239.007075 
L 205.2166 -239.105486 
L 204.000277 -239.203908 
L 202.783954 -239.302341 
L 201.567631 -239.400787 
L 200.351309 -239.499244 
L 199.134986 -239.597712 
L 197.918663 -239.696193 
L 196.70234 -239.794685 
L 195.486018 -239.893188 
L 194.269695 -239.991703 
L 193.053372 -240.09023 
L 191.837049 -240.188768 
L 190.620727 -240.287318 
L 189.404404 -240.385879 
L 188.188081 -240.484453 
L 186.971758 -240.583037 
L 185.755436 -240.681633 
L 184.539113 -240.780241 
L 183.32279 -240.87886 
L 182.106467 -240.977491 
L 180.890145 -241.076133 
L 179.673822 -241.174787 
L 178.457499 -241.273453 
L 177.241176 -241.37213 
L 176.024854 -241.470818 
L 174.808531 -241.569518 
L 173.592208 -241.668229 
L 172.375885 -241.766952 
L 171.159563 -241.865687 
L 169.94324 -241.964433 
L 168.726917 -242.06319 
L 167.510594 -242.161959 
L 166.294272 -242.261617 
L 165.077949 -242.376053 
L 163.861626 -242.504968 
L 162.645303 -242.625304 
L 161.428981 -242.72202 
L 160.212658 -242.815947 
L 158.996335 -242.908355 
L 157.780012 -242.999362 
L 156.56369 -243.090377 
L 155.347367 -243.181402 
L 154.131044 -243.272436 
L 152.914721 -243.36348 
L 151.698399 -243.454532 
L 150.482076 -243.545594 
L 149.265753 -243.636665 
L 148.04943 -243.727744 
L 146.833108 -243.818834 
L 145.616785 -243.909932 
L 144.400462 -244.001039 
L 143.184139 -244.092156 
L 141.967817 -244.183281 
L 140.751494 -244.274416 
L 139.535171 -244.36556 
L 138.318848 -244.456713 
L 137.102526 -244.547875 
L 135.886203 -244.639046 
L 134.66988 -244.730227 
L 133.453557 -244.821416 
L 132.237235 -244.912615 
L 131.020912 -245.003822 
L 129.804589 -245.095039 
L 128.588266 -245.186265 
L 127.371944 -245.2775 
L 126.155621 -245.368744 
L 124.939298 -245.459997 
L 123.722975 -245.551259 
L 122.506653 -245.64253 
L 121.29033 -245.73381 
L 120.074007 -245.825099 
L 118.857684 -245.916398 
L 117.641362 -246.007705 
L 116.425039 -246.099021 
L 115.208716 -246.190347 
L 113.992393 -246.281317 
L 112.776071 -246.374174 
L 111.559748 -246.487106 
L 110.343425 -246.602917 
L 109.127102 -246.712495 
L 107.91078 -246.823689 
L 106.694457 -246.93489 
L 105.478134 -247.046096 
L 104.261811 -247.15731 
L 103.045489 -247.268529 
L 101.829166 -247.379755 
L 100.612843 -247.490987 
L 99.39652 -247.602225 
L 98.180197 -247.713469 
L 96.963875 -247.82472 
L 95.747552 -247.935977 
L 94.531229 -248.04724 
L 93.314906 -248.15851 
L 92.098584 -248.269786 
L 90.882261 -248.381068 
L 89.665938 -248.492356 
L 88.449615 -248.603651 
L 87.233293 -248.714951 
L 86.01697 -248.826258 
L 84.800647 -248.937572 
L 83.584324 -249.048891 
L 82.368002 -249.160217 
L 81.151679 -249.271549 
L 79.935356 -249.382887 
L 78.719033 -249.494231 
L 77.502711 -249.605582 
L 76.286388 -249.716939 
L 75.070065 -249.828302 
L 73.853742 -249.939671 
L 72.63742 -250.051046 
L 71.421097 -250.162428 
L 70.204774 -250.273816 
L 68.988451 -250.38521 
L 67.772129 -250.496611 
L 66.555806 -250.608017 
L 65.339483 -250.71943 
L 64.12316 -250.830849 
L 62.906838 -250.942274 
z
"/>
    </defs>
    <g clip-path="url(#p2cadd2b379)">
     <use xlink:href="#m8f8a4f99f0" x="0" y="269.007656" style="fill: #2c5aa0; fill-opacity: 0.16"/>
    </g>
   </g>
   <g id="FillBetweenPolyCollection_2">
    <defs>
     <path id="m5963c297b2" d="M 62.906838 -247.851784 
L 62.906838 -89.708972 
L 64.12316 -89.555956 
L 65.339483 -89.402924 
L 66.555806 -89.249876 
L 67.772129 -89.096811 
L 68.988451 -88.943729 
L 70.204774 -88.79037 
L 71.421097 -88.642638 
L 72.63742 -88.490216 
L 73.853742 -88.353253 
L 75.070065 -88.247903 
L 76.286388 -88.143744 
L 77.502711 -88.039216 
L 78.719033 -87.934624 
L 79.935356 -87.830009 
L 81.151679 -87.72537 
L 82.368002 -87.620707 
L 83.584324 -87.516021 
L 84.800647 -87.41131 
L 86.01697 -87.306576 
L 87.233293 -87.201817 
L 88.449615 -87.097035 
L 89.665938 -86.992229 
L 90.882261 -86.887399 
L 92.098584 -86.782545 
L 93.314906 -86.677667 
L 94.531229 -86.572765 
L 95.747552 -86.467839 
L 96.963875 -86.362889 
L 98.180197 -86.257914 
L 99.39652 -86.152916 
L 100.612843 -86.047894 
L 101.829166 -85.942842 
L 103.045489 -85.837999 
L 104.261811 -85.729262 
L 105.478134 -85.597919 
L 106.694457 -85.488304 
L 107.91078 -85.380457 
L 109.127102 -85.271484 
L 110.343425 -85.159782 
L 111.559748 -85.048512 
L 112.776071 -84.937213 
L 113.992393 -84.825887 
L 115.208716 -84.714533 
L 116.425039 -84.60315 
L 117.641362 -84.491739 
L 118.857684 -84.3803 
L 120.074007 -84.268832 
L 121.29033 -84.157336 
L 122.506653 -84.045812 
L 123.722975 -83.93426 
L 124.939298 -83.822679 
L 126.155621 -83.71107 
L 127.371944 -83.599432 
L 128.588266 -83.487766 
L 129.804589 -83.376071 
L 131.020912 -83.264348 
L 132.237235 -83.152596 
L 133.453557 -83.041099 
L 134.66988 -82.924352 
L 135.886203 -82.784374 
L 137.102526 -82.644527 
L 138.318848 -82.515335 
L 139.535171 -82.377905 
L 140.751494 -82.237288 
L 141.967817 -82.100487 
L 143.184139 -81.963974 
L 144.400462 -81.827424 
L 145.616785 -81.690835 
L 146.833108 -81.554209 
L 148.04943 -81.417544 
L 149.265753 -81.280842 
L 150.482076 -81.144101 
L 151.698399 -81.007323 
L 152.914721 -80.870506 
L 154.131044 -80.733651 
L 155.347367 -80.596758 
L 156.56369 -80.459827 
L 157.780012 -80.322858 
L 158.996335 -80.185851 
L 160.212658 -80.048805 
L 161.428981 -79.911722 
L 162.645303 -79.7746 
L 163.861626 -79.63744 
L 165.077949 -79.497692 
L 166.294272 -79.356194 
L 167.510594 -79.218831 
L 168.726917 -79.092807 
L 169.94324 -78.94516 
L 171.159563 -78.799984 
L 172.375885 -78.660955 
L 173.592208 -78.515791 
L 174.808531 -78.365947 
L 176.024854 -78.215929 
L 177.241176 -78.065869 
L 178.457499 -77.915768 
L 179.673822 -77.765626 
L 180.890145 -77.615442 
L 182.106467 -77.465217 
L 183.32279 -77.31495 
L 184.539113 -77.164642 
L 185.755436 -77.014291 
L 186.971758 -76.863899 
L 188.188081 -76.713466 
L 189.404404 -76.56299 
L 190.620727 -76.412472 
L 191.837049 -76.261913 
L 193.053372 -76.111311 
L 194.269695 -75.960668 
L 195.486018 -75.803598 
L 196.70234 -75.644496 
L 197.918663 -75.487839 
L 199.134986 -75.338448 
L 200.351309 -75.194454 
L 201.567631 -75.043263 
L 202.783954 -74.907666 
L 204.000277 -74.79169 
L 205.2166 -74.685874 
L 206.432922 -74.579053 
L 207.649245 -74.47727 
L 208.865568 -74.375475 
L 210.081891 -74.273665 
L 211.298214 -74.171843 
L 212.514536 -74.070007 
L 213.730859 -73.968158 
L 214.947182 -73.866296 
L 216.163505 -73.76442 
L 217.379827 -73.662531 
L 218.59615 -73.560629 
L 219.812473 -73.458714 
L 221.028796 -73.356785 
L 222.245118 -73.254843 
L 223.461441 -73.152888 
L 224.677764 -73.050919 
L 225.894087 -72.949014 
L 227.110409 -72.847313 
L 228.326732 -72.738522 
L 229.543055 -72.627301 
L 230.759378 -72.516616 
L 231.9757 -72.402683 
L 233.192023 -72.279902 
L 234.408346 -72.158017 
L 235.624669 -72.023094 
L 236.840991 -71.875116 
L 238.057314 -71.715758 
L 239.273637 -71.551144 
L 240.48996 -71.386467 
L 241.706282 -71.221727 
L 242.922605 -71.056922 
L 244.138928 -70.892054 
L 245.355251 -70.727121 
L 246.571573 -70.562125 
L 247.787896 -70.397065 
L 249.004219 -70.23194 
L 250.220542 -70.066751 
L 251.436864 -69.901497 
L 252.653187 -69.736179 
L 253.86951 -69.570797 
L 255.085833 -69.40535 
L 256.302155 -69.239838 
L 257.518478 -69.074261 
L 258.734801 -68.906953 
L 259.951124 -68.74452 
L 261.167446 -68.589536 
L 262.383769 -68.440774 
L 263.600092 -68.286357 
L 264.816415 -68.13428 
L 266.032737 -67.984543 
L 267.24906 -67.842899 
L 268.465383 -67.704869 
L 269.681706 -67.560394 
L 270.898028 -67.40869 
L 272.114351 -67.257365 
L 273.330674 -67.106006 
L 274.546997 -66.954612 
L 275.763319 -66.803183 
L 276.979642 -66.65172 
L 278.195965 -66.500222 
L 279.412288 -66.348689 
L 280.62861 -66.197121 
L 281.844933 -66.045519 
L 283.061256 -65.893882 
L 284.277579 -65.74221 
L 285.493901 -65.590503 
L 286.710224 -65.438762 
L 287.926547 -65.286985 
L 289.14287 -65.135094 
L 290.359192 -64.983878 
L 291.575515 -64.829003 
L 292.791838 -64.665509 
L 294.008161 -64.469569 
L 295.224483 -64.277211 
L 296.440806 -64.084236 
L 297.657129 -63.885361 
L 298.873452 -63.674363 
L 300.089774 -63.460979 
L 301.306097 -63.25503 
L 302.52242 -63.051862 
L 303.738743 -62.845663 
L 304.955065 -62.637703 
L 306.171388 -62.4306 
L 307.387711 -62.223418 
L 308.604034 -62.016155 
L 309.820356 -61.808812 
L 311.036679 -61.601389 
L 312.253002 -61.393886 
L 313.469325 -61.186302 
L 314.685648 -60.978638 
L 315.90197 -60.770892 
L 317.118293 -60.563066 
L 318.334616 -60.355158 
L 319.550939 -60.147169 
L 320.767261 -59.939474 
L 321.983584 -59.736806 
L 323.199907 -59.543555 
L 324.41623 -59.330295 
L 325.632552 -59.122463 
L 326.848875 -58.934322 
L 328.065198 -58.746665 
L 329.281521 -58.566624 
L 330.497843 -58.38915 
L 331.714166 -58.229299 
L 332.930489 -58.077713 
L 334.146812 -57.924527 
L 335.363134 -57.767892 
L 336.579457 -57.610636 
L 337.79578 -57.460248 
L 339.012103 -57.323908 
L 340.228425 -57.191063 
L 341.444748 -57.058178 
L 342.661071 -56.925252 
L 343.877394 -56.792286 
L 345.093716 -56.65928 
L 346.310039 -56.526232 
L 347.526362 -56.393145 
L 348.742685 -56.260016 
L 349.959007 -56.126847 
L 351.17533 -55.993638 
L 352.391653 -55.860383 
L 353.607976 -55.726078 
L 354.824298 -55.597341 
L 356.040621 -55.482328 
L 357.256944 -55.370806 
L 358.473267 -55.263187 
L 359.689589 -55.148408 
L 360.905912 -55.031312 
L 362.122235 -54.905798 
L 363.338558 -54.766909 
L 364.55488 -54.610108 
L 365.771203 -54.448614 
L 366.987526 -54.291267 
L 368.203849 -54.133876 
L 369.420171 -53.974481 
L 370.636494 -53.816532 
L 371.852817 -53.653361 
L 373.06914 -53.489714 
L 374.285462 -53.314637 
L 375.501785 -53.139482 
L 376.718108 -52.96425 
L 377.934431 -52.788939 
L 379.150753 -52.61355 
L 380.367076 -52.438083 
L 381.583399 -52.262537 
L 382.799722 -52.086913 
L 384.016044 -51.911305 
L 385.232367 -51.73585 
L 386.44869 -51.558113 
L 387.665013 -51.377802 
L 388.881335 -51.195524 
L 390.097658 -50.997797 
L 391.313981 -50.792166 
L 392.530304 -50.582854 
L 393.746626 -50.365726 
L 394.962949 -50.149741 
L 396.179272 -49.945478 
L 397.395595 -49.755258 
L 398.611917 -49.561621 
L 399.82824 -49.367645 
L 401.044563 -49.171733 
L 402.260886 -48.97245 
L 403.477208 -48.76939 
L 404.693531 -48.566523 
L 405.909854 -48.363967 
L 407.126177 -48.161314 
L 408.342499 -47.958762 
L 409.558822 -47.766468 
L 410.775145 -47.574093 
L 411.991468 -47.381639 
L 413.20779 -47.187399 
L 414.424113 -46.990447 
L 415.640436 -46.78839 
L 416.856759 -46.583494 
L 418.073081 -46.38101 
L 419.289404 -46.172429 
L 420.505727 -45.964287 
L 421.72205 -45.76255 
L 422.938373 -45.557309 
L 424.154695 -45.35594 
L 425.371018 -45.154178 
L 426.587341 -44.952311 
L 426.587341 -187.328078 
L 426.587341 -187.328078 
L 425.371018 -187.59677 
L 424.154695 -187.870518 
L 422.938373 -188.142078 
L 421.72205 -188.415618 
L 420.505727 -188.68239 
L 419.289404 -188.955446 
L 418.073081 -189.229987 
L 416.856759 -189.495797 
L 415.640436 -189.764189 
L 414.424113 -190.029391 
L 413.20779 -190.290417 
L 411.991468 -190.549371 
L 410.775145 -190.807346 
L 409.558822 -191.0654 
L 408.342499 -191.323534 
L 407.126177 -191.6035 
L 405.909854 -191.883985 
L 404.693531 -192.164566 
L 403.477208 -192.445969 
L 402.260886 -192.727984 
L 401.044563 -193.00961 
L 399.82824 -193.289014 
L 398.611917 -193.566933 
L 397.395595 -193.844624 
L 396.179272 -194.119144 
L 394.962949 -194.411991 
L 393.746626 -194.715954 
L 392.530304 -195.027208 
L 391.313981 -195.335086 
L 390.097658 -195.635855 
L 388.881335 -195.925371 
L 387.665013 -196.201947 
L 386.44869 -196.477314 
L 385.232367 -196.749718 
L 384.016044 -197.019998 
L 382.799722 -197.290854 
L 381.583399 -197.561915 
L 380.367076 -197.833055 
L 379.150753 -198.104273 
L 377.934431 -198.37557 
L 376.718108 -198.646945 
L 375.501785 -198.918398 
L 374.285462 -199.189929 
L 373.06914 -199.461538 
L 371.852817 -199.707776 
L 370.636494 -199.953146 
L 369.420171 -200.188859 
L 368.203849 -200.42291 
L 366.987526 -200.651139 
L 365.771203 -200.879447 
L 364.55488 -201.113174 
L 363.338558 -201.339681 
L 362.122235 -201.541726 
L 360.905912 -201.720122 
L 359.689589 -201.880465 
L 358.473267 -202.037884 
L 357.256944 -202.186156 
L 356.040621 -202.338095 
L 354.824298 -202.493548 
L 353.607976 -202.662846 
L 352.391653 -202.837611 
L 351.17533 -203.011255 
L 349.959007 -203.184935 
L 348.742685 -203.358656 
L 347.526362 -203.532417 
L 346.310039 -203.706219 
L 345.093716 -203.880061 
L 343.877394 -204.053944 
L 342.661071 -204.227867 
L 341.444748 -204.401831 
L 340.228425 -204.575835 
L 339.012103 -204.749879 
L 337.79578 -204.931912 
L 336.579457 -205.139156 
L 335.363134 -205.358873 
L 334.146812 -205.579035 
L 332.930489 -205.79525 
L 331.714166 -206.009331 
L 330.497843 -206.233053 
L 329.281521 -206.485084 
L 328.065198 -206.745752 
L 326.848875 -207.01851 
L 325.632552 -207.291762 
L 324.41623 -207.586503 
L 323.199907 -207.888586 
L 321.983584 -208.170396 
L 320.767261 -208.459111 
L 319.550939 -208.753087 
L 318.334616 -209.04754 
L 317.118293 -209.342073 
L 315.90197 -209.636688 
L 314.685648 -209.931383 
L 313.469325 -210.22616 
L 312.253002 -210.521017 
L 311.036679 -210.815955 
L 309.820356 -211.110973 
L 308.604034 -211.406072 
L 307.387711 -211.70125 
L 306.171388 -211.996509 
L 304.955065 -212.291847 
L 303.738743 -212.589412 
L 302.52242 -212.884617 
L 301.306097 -213.177062 
L 300.089774 -213.473847 
L 298.873452 -213.776246 
L 297.657129 -214.058458 
L 296.440806 -214.317121 
L 295.224483 -214.564052 
L 294.008161 -214.807865 
L 292.791838 -215.050734 
L 291.575515 -215.250193 
L 290.359192 -215.440999 
L 289.14287 -215.62914 
L 287.926547 -215.816676 
L 286.710224 -216.004164 
L 285.493901 -216.191686 
L 284.277579 -216.379243 
L 283.061256 -216.566835 
L 281.844933 -216.754461 
L 280.62861 -216.942123 
L 279.412288 -217.129819 
L 278.195965 -217.31755 
L 276.979642 -217.505315 
L 275.763319 -217.693116 
L 274.546997 -217.880951 
L 273.330674 -218.06882 
L 272.114351 -218.256725 
L 270.898028 -218.444663 
L 269.681706 -218.633805 
L 268.465383 -218.811351 
L 267.24906 -218.977311 
L 266.032737 -219.158318 
L 264.816415 -219.366421 
L 263.600092 -219.581472 
L 262.383769 -219.795904 
L 261.167446 -220.008839 
L 259.951124 -220.233086 
L 258.734801 -220.467866 
L 257.518478 -220.70589 
L 256.302155 -220.942093 
L 255.085833 -221.178361 
L 253.86951 -221.414694 
L 252.653187 -221.651091 
L 251.436864 -221.887553 
L 250.220542 -222.124079 
L 249.004219 -222.36067 
L 247.787896 -222.597325 
L 246.571573 -222.834044 
L 245.355251 -223.070827 
L 244.138928 -223.307675 
L 242.922605 -223.544586 
L 241.706282 -223.781561 
L 240.48996 -224.0186 
L 239.273637 -224.255703 
L 238.057314 -224.49287 
L 236.840991 -224.718503 
L 235.624669 -224.920774 
L 234.408346 -225.103494 
L 233.192023 -225.264943 
L 231.9757 -225.415876 
L 230.759378 -225.543794 
L 229.543055 -225.664826 
L 228.326732 -225.784297 
L 227.110409 -225.901608 
L 225.894087 -226.014805 
L 224.677764 -226.12975 
L 223.461441 -226.244789 
L 222.245118 -226.359841 
L 221.028796 -226.474907 
L 219.812473 -226.589986 
L 218.59615 -226.705078 
L 217.379827 -226.820183 
L 216.163505 -226.935302 
L 214.947182 -227.050434 
L 213.730859 -227.16558 
L 212.514536 -227.280738 
L 211.298214 -227.39591 
L 210.081891 -227.511095 
L 208.865568 -227.626294 
L 207.649245 -227.741505 
L 206.432922 -227.85673 
L 205.2166 -227.981573 
L 204.000277 -228.107097 
L 202.783954 -228.255318 
L 201.567631 -228.439688 
L 200.351309 -228.653212 
L 199.134986 -228.858924 
L 197.918663 -229.074639 
L 196.70234 -229.300691 
L 195.486018 -229.526229 
L 194.269695 -229.748101 
L 193.053372 -229.962877 
L 191.837049 -230.177694 
L 190.620727 -230.392553 
L 189.404404 -230.607454 
L 188.188081 -230.822397 
L 186.971758 -231.037382 
L 185.755436 -231.252408 
L 184.539113 -231.467477 
L 183.32279 -231.682587 
L 182.106467 -231.897738 
L 180.890145 -232.112932 
L 179.673822 -232.328167 
L 178.457499 -232.543443 
L 177.241176 -232.758761 
L 176.024854 -232.97412 
L 174.808531 -233.18952 
L 173.592208 -233.404835 
L 172.375885 -233.613645 
L 171.159563 -233.813441 
L 169.94324 -234.021791 
L 168.726917 -234.233018 
L 167.510594 -234.392052 
L 166.294272 -234.547553 
L 165.077949 -234.703368 
L 163.861626 -234.857127 
L 162.645303 -235.008819 
L 161.428981 -235.16055 
L 160.212658 -235.312319 
L 158.996335 -235.464127 
L 157.780012 -235.615972 
L 156.56369 -235.767856 
L 155.347367 -235.919777 
L 154.131044 -236.071737 
L 152.914721 -236.223735 
L 151.698399 -236.375771 
L 150.482076 -236.527845 
L 149.265753 -236.679957 
L 148.04943 -236.832107 
L 146.833108 -236.984295 
L 145.616785 -237.136521 
L 144.400462 -237.288785 
L 143.184139 -237.441087 
L 141.967817 -237.593428 
L 140.751494 -237.746017 
L 139.535171 -237.901977 
L 138.318848 -238.058992 
L 137.102526 -238.20844 
L 135.886203 -238.38985 
L 134.66988 -238.579172 
L 133.453557 -238.745005 
L 132.237235 -238.902239 
L 131.020912 -239.05969 
L 129.804589 -239.217169 
L 128.588266 -239.374678 
L 127.371944 -239.532214 
L 126.155621 -239.689779 
L 124.939298 -239.847373 
L 123.722975 -240.004995 
L 122.506653 -240.162645 
L 121.29033 -240.320324 
L 120.074007 -240.478031 
L 118.857684 -240.635766 
L 117.641362 -240.79353 
L 116.425039 -240.951322 
L 115.208716 -241.109142 
L 113.992393 -241.26699 
L 112.776071 -241.424867 
L 111.559748 -241.582771 
L 110.343425 -241.740704 
L 109.127102 -241.899031 
L 107.91078 -242.054655 
L 106.694457 -242.208035 
L 105.478134 -242.36134 
L 104.261811 -242.558689 
L 103.045489 -242.721533 
L 101.829166 -242.866942 
L 100.612843 -243.013246 
L 99.39652 -243.159613 
L 98.180197 -243.306003 
L 96.963875 -243.452418 
L 95.747552 -243.598856 
L 94.531229 -243.745319 
L 93.314906 -243.891805 
L 92.098584 -244.038316 
L 90.882261 -244.184851 
L 89.665938 -244.331409 
L 88.449615 -244.477992 
L 87.233293 -244.624598 
L 86.01697 -244.771229 
L 84.800647 -244.917883 
L 83.584324 -245.064561 
L 82.368002 -245.211263 
L 81.151679 -245.357989 
L 79.935356 -245.504739 
L 78.719033 -245.651513 
L 77.502711 -245.79831 
L 76.286388 -245.945212 
L 75.070065 -246.092867 
L 73.853742 -246.241957 
L 72.63742 -246.418191 
L 71.421097 -246.598641 
L 70.204774 -246.773073 
L 68.988451 -246.95303 
L 67.772129 -247.132748 
L 66.555806 -247.312482 
L 65.339483 -247.492233 
L 64.12316 -247.672 
L 62.906838 -247.851784 
z
"/>
    </defs>
    <g clip-path="url(#p2cadd2b379)">
     <use xlink:href="#m5963c297b2" x="0" y="269.007656" style="fill: #d65f00; fill-opacity: 0.16"/>
    </g>
   </g>
   <g id="matplotlib.axis_1">
    <g id="xtick_1">
     <g id="line2d_1">
      <path d="M 71.419434 234.354843 
L 71.419434 7.765883 
" clip-path="url(#p2cadd2b379)" style="fill: none; stroke: #eeeeee; stroke-width: 0.5; stroke-linecap: square"/>
     </g>
     <g id="line2d_2">
      <defs>
       <path id="m16b4a11b5c" d="M 0 0 
L 0 3.5 
" style="stroke: #000000; stroke-width: 0.8"/>
      </defs>
      <g>
       <use xlink:href="#m16b4a11b5c" x="71.419434" y="234.354843" style="stroke: #000000; stroke-width: 0.8"/>
      </g>
     </g>
     <g id="text_1">
      <text style="font-size: 8px; font-family: 'DejaVu Sans', 'Bitstream Vera Sans', 'Computer Modern Sans Serif', 'Lucida Grande', 'Verdana', 'Geneva', 'Lucid', 'Arial', 'Helvetica', 'Avant Garde', sans-serif; text-anchor: middle" x="71.419434" y="247.433593" transform="rotate(-0 71.419434 247.433593)">0.1</text>
     </g>
    </g>
    <g id="xtick_2">
     <g id="line2d_3">
      <path d="M 133.555177 234.354843 
L 133.555177 7.765883 
" clip-path="url(#p2cadd2b379)" style="fill: none; stroke: #eeeeee; stroke-width: 0.5; stroke-linecap: square"/>
     </g>
     <g id="line2d_4">
      <g>
       <use xlink:href="#m16b4a11b5c" x="133.555177" y="234.354843" style="stroke: #000000; stroke-width: 0.8"/>
      </g>
     </g>
     <g id="text_2">
      <text style="font-size: 8px; font-family: 'DejaVu Sans', 'Bitstream Vera Sans', 'Computer Modern Sans Serif', 'Lucida Grande', 'Verdana', 'Geneva', 'Lucid', 'Arial', 'Helvetica', 'Avant Garde', sans-serif; text-anchor: middle" x="133.555177" y="247.433593" transform="rotate(-0 133.555177 247.433593)">0.2</text>
     </g>
    </g>
    <g id="xtick_3">
     <g id="line2d_5">
      <path d="M 195.69092 234.354843 
L 195.69092 7.765883 
" clip-path="url(#p2cadd2b379)" style="fill: none; stroke: #eeeeee; stroke-width: 0.5; stroke-linecap: square"/>
     </g>
     <g id="line2d_6">
      <g>
       <use xlink:href="#m16b4a11b5c" x="195.69092" y="234.354843" style="stroke: #000000; stroke-width: 0.8"/>
      </g>
     </g>
     <g id="text_3">
      <text style="font-size: 8px; font-family: 'DejaVu Sans', 'Bitstream Vera Sans', 'Computer Modern Sans Serif', 'Lucida Grande', 'Verdana', 'Geneva', 'Lucid', 'Arial', 'Helvetica', 'Avant Garde', sans-serif; text-anchor: middle" x="195.69092" y="247.433593" transform="rotate(-0 195.69092 247.433593)">0.3</text>
     </g>
    </g>
    <g id="xtick_4">
     <g id="line2d_7">
      <path d="M 257.826663 234.354843 
L 257.826663 7.765883 
" clip-path="url(#p2cadd2b379)" style="fill: none; stroke: #eeeeee; stroke-width: 0.5; stroke-linecap: square"/>
     </g>
     <g id="line2d_8">
      <g>
       <use xlink:href="#m16b4a11b5c" x="257.826663" y="234.354843" style="stroke: #000000; stroke-width: 0.8"/>
      </g>
     </g>
     <g id="text_4">
      <text style="font-size: 8px; font-family: 'DejaVu Sans', 'Bitstream Vera Sans', 'Computer Modern Sans Serif', 'Lucida Grande', 'Verdana', 'Geneva', 'Lucid', 'Arial', 'Helvetica', 'Avant Garde', sans-serif; text-anchor: middle" x="257.826663" y="247.433593" transform="rotate(-0 257.826663 247.433593)">0.4</text>
     </g>
    </g>
    <g id="xtick_5">
     <g id="line2d_9">
      <path d="M 319.962406 234.354843 
L 319.962406 7.765883 
" clip-path="url(#p2cadd2b379)" style="fill: none; stroke: #eeeeee; stroke-width: 0.5; stroke-linecap: square"/>
     </g>
     <g id="line2d_10">
      <g>
       <use xlink:href="#m16b4a11b5c" x="319.962406" y="234.354843" style="stroke: #000000; stroke-width: 0.8"/>
      </g>
     </g>
     <g id="text_5">
      <text style="font-size: 8px; font-family: 'DejaVu Sans', 'Bitstream Vera Sans', 'Computer Modern Sans Serif', 'Lucida Grande', 'Verdana', 'Geneva', 'Lucid', 'Arial', 'Helvetica', 'Avant Garde', sans-serif; text-anchor: middle" x="319.962406" y="247.433593" transform="rotate(-0 319.962406 247.433593)">0.5</text>
     </g>
    </g>
    <g id="xtick_6">
     <g id="line2d_11">
      <path d="M 382.098149 234.354843 
L 382.098149 7.765883 
" clip-path="url(#p2cadd2b379)" style="fill: none; stroke: #eeeeee; stroke-width: 0.5; stroke-linecap: square"/>
     </g>
     <g id="line2d_12">
      <g>
       <use xlink:href="#m16b4a11b5c" x="382.098149" y="234.354843" style="stroke: #000000; stroke-width: 0.8"/>
      </g>
     </g>
     <g id="text_6">
      <text style="font-size: 8px; font-family: 'DejaVu Sans', 'Bitstream Vera Sans', 'Computer Modern Sans Serif', 'Lucida Grande', 'Verdana', 'Geneva', 'Lucid', 'Arial', 'Helvetica', 'Avant Garde', sans-serif; text-anchor: middle" x="382.098149" y="247.433593" transform="rotate(-0 382.098149 247.433593)">0.6</text>
     </g>
    </g>
    <g id="xtick_7">
     <g id="line2d_13">
      <path d="M 444.233892 234.354843 
L 444.233892 7.765883 
" clip-path="url(#p2cadd2b379)" style="fill: none; stroke: #eeeeee; stroke-width: 0.5; stroke-linecap: square"/>
     </g>
     <g id="line2d_14">
      <g>
       <use xlink:href="#m16b4a11b5c" x="444.233892" y="234.354843" style="stroke: #000000; stroke-width: 0.8"/>
      </g>
     </g>
     <g id="text_7">
      <text style="font-size: 8px; font-family: 'DejaVu Sans', 'Bitstream Vera Sans', 'Computer Modern Sans Serif', 'Lucida Grande', 'Verdana', 'Geneva', 'Lucid', 'Arial', 'Helvetica', 'Avant Garde', sans-serif; text-anchor: middle" x="444.233892" y="247.433593" transform="rotate(-0 444.233892 247.433593)">0.7</text>
     </g>
    </g>
    <g id="text_8">
     <text style="font-size: 9px; font-family: 'DejaVu Sans', 'Bitstream Vera Sans', 'Computer Modern Sans Serif', 'Lucida Grande', 'Verdana', 'Geneva', 'Lucid', 'Arial', 'Helvetica', 'Avant Garde', sans-serif; text-anchor: middle" x="244.747089" y="259.935937" transform="rotate(-0 244.747089 259.935937)">Cumulative shots (millions)</text>
    </g>
   </g>
   <g id="matplotlib.axis_2">
    <g id="ytick_1">
     <g id="line2d_15">
      <path d="M 44.722813 203.763592 
L 444.771366 203.763592 
" clip-path="url(#p2cadd2b379)" style="fill: none; stroke: #d8d8d8; stroke-width: 0.7; stroke-linecap: square"/>
     </g>
     <g id="line2d_16">
      <defs>
       <path id="m8eb9dfd70e" d="M 0 0 
L -3.5 0 
" style="stroke: #000000; stroke-width: 0.8"/>
      </defs>
      <g>
       <use xlink:href="#m8eb9dfd70e" x="44.722813" y="203.763592" style="stroke: #000000; stroke-width: 0.8"/>
      </g>
     </g>
     <g id="text_9">
      <text style="font-size: 8px; font-family: 'DejaVu Sans', 'Bitstream Vera Sans', 'Computer Modern Sans Serif', 'Lucida Grande', 'Verdana', 'Geneva', 'Lucid', 'Arial', 'Helvetica', 'Avant Garde', sans-serif; text-anchor: end" x="37.722813" y="206.802967" transform="rotate(-0 37.722813 206.802967)">0.36</text>
     </g>
    </g>
    <g id="ytick_2">
     <g id="line2d_17">
      <path d="M 44.722813 165.058748 
L 444.771366 165.058748 
" clip-path="url(#p2cadd2b379)" style="fill: none; stroke: #d8d8d8; stroke-width: 0.7; stroke-linecap: square"/>
     </g>
     <g id="line2d_18">
      <g>
       <use xlink:href="#m8eb9dfd70e" x="44.722813" y="165.058748" style="stroke: #000000; stroke-width: 0.8"/>
      </g>
     </g>
     <g id="text_10">
      <text style="font-size: 8px; font-family: 'DejaVu Sans', 'Bitstream Vera Sans', 'Computer Modern Sans Serif', 'Lucida Grande', 'Verdana', 'Geneva', 'Lucid', 'Arial', 'Helvetica', 'Avant Garde', sans-serif; text-anchor: end" x="37.722813" y="168.098123" transform="rotate(-0 37.722813 168.098123)">0.38</text>
     </g>
    </g>
    <g id="ytick_3">
     <g id="line2d_19">
      <path d="M 44.722813 126.353905 
L 444.771366 126.353905 
" clip-path="url(#p2cadd2b379)" style="fill: none; stroke: #d8d8d8; stroke-width: 0.7; stroke-linecap: square"/>
     </g>
     <g id="line2d_20">
      <g>
       <use xlink:href="#m8eb9dfd70e" x="44.722813" y="126.353905" style="stroke: #000000; stroke-width: 0.8"/>
      </g>
     </g>
     <g id="text_11">
      <text style="font-size: 8px; font-family: 'DejaVu Sans', 'Bitstream Vera Sans', 'Computer Modern Sans Serif', 'Lucida Grande', 'Verdana', 'Geneva', 'Lucid', 'Arial', 'Helvetica', 'Avant Garde', sans-serif; text-anchor: end" x="37.722813" y="129.39328" transform="rotate(-0 37.722813 129.39328)">0.40</text>
     </g>
    </g>
    <g id="ytick_4">
     <g id="line2d_21">
      <path d="M 44.722813 87.649062 
L 444.771366 87.649062 
" clip-path="url(#p2cadd2b379)" style="fill: none; stroke: #d8d8d8; stroke-width: 0.7; stroke-linecap: square"/>
     </g>
     <g id="line2d_22">
      <g>
       <use xlink:href="#m8eb9dfd70e" x="44.722813" y="87.649062" style="stroke: #000000; stroke-width: 0.8"/>
      </g>
     </g>
     <g id="text_12">
      <text style="font-size: 8px; font-family: 'DejaVu Sans', 'Bitstream Vera Sans', 'Computer Modern Sans Serif', 'Lucida Grande', 'Verdana', 'Geneva', 'Lucid', 'Arial', 'Helvetica', 'Avant Garde', sans-serif; text-anchor: end" x="37.722813" y="90.688437" transform="rotate(-0 37.722813 90.688437)">0.42</text>
     </g>
    </g>
    <g id="ytick_5">
     <g id="line2d_23">
      <path d="M 44.722813 48.944218 
L 444.771366 48.944218 
" clip-path="url(#p2cadd2b379)" style="fill: none; stroke: #d8d8d8; stroke-width: 0.7; stroke-linecap: square"/>
     </g>
     <g id="line2d_24">
      <g>
       <use xlink:href="#m8eb9dfd70e" x="44.722813" y="48.944218" style="stroke: #000000; stroke-width: 0.8"/>
      </g>
     </g>
     <g id="text_13">
      <text style="font-size: 8px; font-family: 'DejaVu Sans', 'Bitstream Vera Sans', 'Computer Modern Sans Serif', 'Lucida Grande', 'Verdana', 'Geneva', 'Lucid', 'Arial', 'Helvetica', 'Avant Garde', sans-serif; text-anchor: end" x="37.722813" y="51.983593" transform="rotate(-0 37.722813 51.983593)">0.44</text>
     </g>
    </g>
    <g id="ytick_6">
     <g id="line2d_25">
      <path d="M 44.722813 10.239375 
L 444.771366 10.239375 
" clip-path="url(#p2cadd2b379)" style="fill: none; stroke: #d8d8d8; stroke-width: 0.7; stroke-linecap: square"/>
     </g>
     <g id="line2d_26">
      <g>
       <use xlink:href="#m8eb9dfd70e" x="44.722813" y="10.239375" style="stroke: #000000; stroke-width: 0.8"/>
      </g>
     </g>
     <g id="text_14">
      <text style="font-size: 8px; font-family: 'DejaVu Sans', 'Bitstream Vera Sans', 'Computer Modern Sans Serif', 'Lucida Grande', 'Verdana', 'Geneva', 'Lucid', 'Arial', 'Helvetica', 'Avant Garde', sans-serif; text-anchor: end" x="37.722813" y="13.27875" transform="rotate(-0 37.722813 13.27875)">0.46</text>
     </g>
    </g>
    <g id="text_15">
     <text style="font-size: 9px; font-family: 'DejaVu Sans', 'Bitstream Vera Sans', 'Computer Modern Sans Serif', 'Lucida Grande', 'Verdana', 'Geneva', 'Lucid', 'Arial', 'Helvetica', 'Avant Garde', sans-serif; text-anchor: middle" x="14.038594" y="121.060363" transform="rotate(-90 14.038594 121.060363)">Best-so-far normalized mean violated clauses</text>
    </g>
   </g>
   <g id="line2d_27">
    <path d="M 62.906838 97.367893 
L 117.641362 101.906271 
L 172.375885 105.538324 
L 257.518478 111.531947 
L 268.465383 112.423085 
L 320.767261 117.335129 
L 341.444748 118.48666 
L 371.852817 120.259181 
L 386.44869 121.766687 
L 422.938373 125.494393 
L 426.587341 125.777994 
L 426.587341 125.777994 
" clip-path="url(#p2cadd2b379)" style="fill: none; stroke: #2c5aa0; stroke-width: 2; stroke-linecap: square"/>
   </g>
   <g id="line2d_28">
    <path d="M 62.906838 100.227278 
L 76.286388 101.963178 
L 115.208716 106.095818 
L 141.967817 109.160698 
L 172.375885 112.870355 
L 195.486018 116.342742 
L 202.783954 117.426164 
L 210.081891 118.115275 
L 234.408346 120.3769 
L 239.273637 121.104232 
L 266.032737 125.436225 
L 286.710224 128.286193 
L 294.008161 129.368938 
L 300.089774 130.540242 
L 329.281521 136.481801 
L 335.363134 137.444273 
L 341.444748 138.277651 
L 368.203849 141.729262 
L 376.718108 143.202058 
L 392.530304 146.202625 
L 399.82824 147.679326 
L 426.587341 152.867461 
L 426.587341 152.867461 
" clip-path="url(#p2cadd2b379)" style="fill: none; stroke: #d65f00; stroke-width: 2; stroke-linecap: square"/>
   </g>
   <g id="patch_3">
    <path d="M 44.722813 234.354843 
L 44.722813 7.765883 
" style="fill: none; stroke: #000000; stroke-width: 0.8; stroke-linejoin: miter; stroke-linecap: square"/>
   </g>
   <g id="patch_4">
    <path d="M 44.722812 234.354843 
L 444.771366 234.354843 
" style="fill: none; stroke: #000000; stroke-width: 0.8; stroke-linejoin: miter; stroke-linecap: square"/>
   </g>
   <g id="text_16">
    <text style="font-size: 8px; font-family: 'DejaVu Sans', 'Bitstream Vera Sans', 'Computer Modern Sans Serif', 'Lucida Grande', 'Verdana', 'Geneva', 'Lucid', 'Arial', 'Helvetica', 'Avant Garde', sans-serif; text-anchor: start; fill: #555555" x="52.723784" y="223.627535" transform="rotate(-0 52.723784 223.627535)">100 problems, mean +/- 95% CI</text>
   </g>
   <g id="legend_1">
    <g id="line2d_29">
     <path d="M 377.318866 18.244633 
L 385.318866 18.244633 
L 393.318866 18.244633 
" style="fill: none; stroke: #2c5aa0; stroke-width: 2; stroke-linecap: square"/>
    </g>
    <g id="text_17">
     <text style="font-size: 8px; font-family: 'DejaVu Sans', 'Bitstream Vera Sans', 'Computer Modern Sans Serif', 'Lucida Grande', 'Verdana', 'Geneva', 'Lucid', 'Arial', 'Helvetica', 'Avant Garde', sans-serif; text-anchor: start" x="399.718866" y="21.044633" transform="rotate(-0 399.718866 21.044633)">DQAS</text>
    </g>
    <g id="line2d_30">
     <path d="M 377.318866 29.987133 
L 385.318866 29.987133 
L 393.318866 29.987133 
" style="fill: none; stroke: #d65f00; stroke-width: 2; stroke-linecap: square"/>
    </g>
    <g id="text_18">
     <text style="font-size: 8px; font-family: 'DejaVu Sans', 'Bitstream Vera Sans', 'Computer Modern Sans Serif', 'Lucida Grande', 'Verdana', 'Geneva', 'Lucid', 'Arial', 'Helvetica', 'Avant Garde', sans-serif; text-anchor: start" x="399.718866" y="32.787133" transform="rotate(-0 399.718866 32.787133)">ME-DQAS</text>
    </g>
   </g>
  </g>
 </g>
 <defs>
  <clipPath id="p2cadd2b379">
   <rect x="44.722813" y="7.765883" width="400.048553" height="226.58896"/>
  </clipPath>
 </defs>
</svg>
